<svg xmlns="http://www.w3.org/2000/svg" xmlns:xlink="http://www.w3.org/1999/xlink" width="11" height="11" viewBox="0 0 11 11" fill="none">
<path     fill="#FFFFFF"  d="M0.69 4.81C0.310304 4.81 0 5.1203 0 5.5C0 5.8797 0.310304 6.19 0.69 6.19L4.81 6.19L4.81 10.31C4.81 10.6897 5.1203 11 5.5 11C5.8797 11 6.19 10.6897 6.19 10.31L6.19 6.19L10.31 6.19C10.6897 6.19 11 5.8797 11 5.5C11 5.1203 10.6897 4.81 10.31 4.81L6.19 4.81L6.19 0.69C6.19 0.310304 5.8797 0 5.5 0C5.1203 0 4.81 0.310304 4.81 0.69L4.81 4.81L0.69 4.81">
</path>
</svg>
