<svg xmlns="http://www.w3.org/2000/svg" xmlns:xlink="http://www.w3.org/1999/xlink" width="18" height="19.3846435546875" viewBox="0 0 18 19.3846435546875" fill="none">
<path   fill-rule="evenodd"  fill="#666666"  d="M9 19.3846C3.99946 19.3846 0 18.2665 0 16.4229C0 15.237 1.46769 14.4492 3.83331 13.9548C4.20231 13.8558 4.56854 14.085 4.59762 14.4464C4.64565 14.6182 4.61859 14.8023 4.52317 14.953C4.42775 15.1037 4.27291 15.2069 4.09708 15.237C2.36354 15.6012 1.33062 16.1605 1.33062 16.4229C1.33062 16.488 1.431 16.587 1.73146 16.7843C2.097 17.0155 2.63008 17.2447 3.33069 17.442C4.79769 17.8685 6.86631 18.1004 9.03185 18.1004C11.1995 18.1004 13.2335 17.8685 14.7337 17.442C15.4315 17.2447 15.966 17.0155 16.3322 16.7843C16.5981 16.587 16.6985 16.488 16.6985 16.4229C16.6985 16.1266 15.5665 15.5333 13.6662 15.1719C13.4938 15.145 13.3398 15.0492 13.2394 14.9066C13.139 14.7639 13.1009 14.5866 13.1338 14.4152C13.1641 14.243 13.2626 14.0902 13.4069 13.9913C13.5512 13.8924 13.7292 13.8559 13.9008 13.8898C16.4326 14.3813 18 15.2058 18 16.4229C18 18.2665 14.0005 19.3846 9 19.3846ZM10.5778 15.7237C10.2475 16.0207 9.95262 16.2568 9.69577 16.4257C9.34685 16.6569 9.081 16.7601 8.83385 16.7601C8.59015 16.7601 8.32362 16.6569 7.97262 16.4257C7.66203 16.2133 7.36726 15.9787 7.09062 15.7237C6.40177 15.1048 5.64992 14.2948 4.97146 13.4391C3.91431 12.1064 2.13854 9.52477 2.13854 7.22562C2.13854 5.26431 2.77823 3.45877 3.93854 2.14338C4.52601 1.4742 5.25034 0.938981 6.06254 0.573923C6.91062 0.193154 7.84246 0 8.83385 0C9.82523 0 10.7585 0.193154 11.6052 0.573923C12.4174 0.939232 13.1419 1.47441 13.7298 2.14338C14.8915 3.45877 15.5292 5.26431 15.5292 7.22562C15.5292 9.52477 13.7541 12.1043 12.6969 13.4391C12.0178 14.2948 11.2659 15.1068 10.5778 15.7237ZM8.83385 1.20323C5.61046 1.20323 3.357 3.67823 3.357 7.22354C3.357 8.59015 4.24385 10.5203 5.79185 12.5162C6.40177 13.302 7.08854 14.0656 7.72754 14.6631C8.316 15.2128 8.67808 15.4516 8.83108 15.5312C8.98546 15.4516 9.34685 15.2128 9.93531 14.6631C10.6348 13.9981 11.2821 13.2804 11.8717 12.5162C13.4197 10.5203 14.3058 8.59015 14.3058 7.22354C14.3107 3.67823 12.0593 1.20323 8.83385 1.20323ZM8.83385 9.82869C7.97039 9.83196 7.14076 9.49319 6.52638 8.88646C5.91453 8.28669 5.57035 7.46556 5.57169 6.60877C5.57169 5.74823 5.91162 4.93892 6.52638 4.33177C7.14048 3.72453 7.97023 3.38546 8.83385 3.38885C9.70615 3.38885 10.5258 3.72392 11.1413 4.33177C11.7535 4.93106 12.0977 5.75211 12.096 6.60877C12.096 7.46931 11.7568 8.27931 11.1413 8.88646C10.5273 9.4937 9.69742 9.83256 8.83385 9.82869ZM8.83385 4.59138C7.70815 4.59138 6.79292 5.49554 6.79292 6.60669C6.79292 7.71785 7.70815 8.62131 8.83385 8.62131C9.95954 8.62131 10.8755 7.71785 10.8755 6.60669C10.8755 5.49554 9.96231 4.59138 8.83385 4.59138Z">
</path>
</svg>
