<svg xmlns="http://www.w3.org/2000/svg" xmlns:xlink="http://www.w3.org/1999/xlink" width="22" height="30" viewBox="0 0 22 30" fill="none">
<path   fill-rule="evenodd"  fill="#FFFFFF"  d="M21.4419 20.747L13.1517 14.9996L21.4419 9.25229C21.7888 9.01185 22 8.58707 22 8.12968C22 7.67229 21.7888 7.24751 21.4419 7.00706L11.6189 0.197057C11.612 0.192354 11.6047 0.188592 11.5978 0.184124C11.5757 0.169513 11.5532 0.155633 11.5304 0.142502L11.4923 0.121809C11.3833 0.0656021 11.2672 0.0284107 11.1482 0.0115224C11.1087 0.0056434 11.0689 0.00234571 11.0291 0.00164606C11.0192 0.00141091 11.0098 0 11 0C10.9928 0 10.9857 0.00117576 10.9786 0.00117576C10.9572 0.00172604 10.9358 0.00298072 10.9144 0.00493819C10.8958 0.00625373 10.8773 0.00805706 10.8588 0.0103467C10.841 0.0126982 10.8234 0.0162255 10.8056 0.0195176C10.7845 0.0232959 10.7635 0.0276868 10.7427 0.0326862C10.7278 0.0364486 10.7131 0.0411516 10.6982 0.0456195C10.676 0.0520056 10.6539 0.0591418 10.632 0.0670184C10.6177 0.0721917 10.6039 0.0785408 10.5898 0.0841845C10.5686 0.0931202 10.5475 0.101821 10.5269 0.111932C10.5112 0.119692 10.4961 0.128393 10.4808 0.136859C10.4628 0.146735 10.4447 0.156376 10.4273 0.167428C10.4093 0.178716 10.3919 0.191179 10.3745 0.203407C10.3606 0.213283 10.3466 0.222689 10.333 0.233036C10.3139 0.24785 10.2956 0.263841 10.2772 0.279831C10.2659 0.289707 10.2543 0.299349 10.2434 0.309695C10.2257 0.326629 10.2085 0.344196 10.1918 0.362369C10.1807 0.374127 10.1696 0.385649 10.1589 0.397877C10.144 0.414808 10.13 0.432915 10.1159 0.450787C10.104 0.466071 10.092 0.481121 10.0807 0.497112C10.0692 0.513337 10.0583 0.530033 10.0474 0.546964C10.0348 0.566481 10.0224 0.586234 10.0107 0.606692C10.0069 0.613512 10.0025 0.619391 9.99873 0.62621C9.9937 0.635381 9.98971 0.645022 9.98489 0.654428C9.96493 0.692949 9.9466 0.732498 9.92995 0.772945C9.90532 0.832557 9.88499 0.894286 9.86914 0.957539C9.85894 0.998088 9.85033 1.03912 9.84335 1.08052C9.83907 1.10665 9.83551 1.13292 9.83266 1.1593C9.83098 1.17529 9.82931 1.19128 9.82805 1.20751C9.82595 1.23596 9.82469 1.26441 9.82427 1.2931C9.82406 1.30227 9.82302 1.31097 9.82302 1.32014L9.82302 12.5729L1.796 7.0073C1.43834 6.75934 0.989883 6.7442 0.619569 6.9676C0.249256 7.19099 0.0133424 7.61898 0.000695486 8.09033C-0.0119514 8.56169 0.200589 9.0048 0.558256 9.25276L8.848 14.9999L0.558256 20.747C0.00535142 21.1303 -0.165787 21.9437 0.176007 22.5638C0.517802 23.1839 1.2431 23.3758 1.796 22.9925L9.82323 17.4274L9.82323 28.6799C9.82323 28.689 9.82427 28.6977 9.82448 28.7069C9.82594 28.7965 9.83564 28.8857 9.85342 28.9731C9.86684 29.0374 9.88421 29.1006 9.90542 29.1622C9.91959 29.2017 9.93519 29.2406 9.95218 29.2788C9.96245 29.3016 9.97357 29.3237 9.98489 29.3456C9.98971 29.355 9.9937 29.3646 9.99873 29.3738C10.0017 29.3792 10.0054 29.3839 10.0086 29.3891C10.0312 29.4288 10.0553 29.4674 10.0818 29.5041L10.0916 29.5189C10.1195 29.557 10.1499 29.5925 10.1814 29.6268C10.1935 29.6402 10.2063 29.6524 10.2189 29.6651C10.2405 29.6868 10.2627 29.7072 10.2858 29.727C10.2992 29.7385 10.3124 29.75 10.326 29.7609C10.3577 29.7858 10.3902 29.8088 10.424 29.83C10.4286 29.8328 10.4328 29.8363 10.4376 29.8392C10.477 29.8631 10.5179 29.8841 10.5598 29.9031C10.5703 29.9078 10.5808 29.9118 10.5913 29.916C10.636 29.9347 10.6816 29.9503 10.728 29.9628C10.7603 29.9715 10.7932 29.9784 10.8268 29.9838C10.8395 29.9859 10.8523 29.9887 10.8651 29.9904C10.9058 29.9955 10.9469 29.9986 10.9886 29.9991C10.9928 29.9991 10.997 30 11.0012 30C11.0062 30 11.0113 29.9988 11.0161 29.9988C11.0585 29.9981 11.1004 29.9948 11.1417 29.9892C11.157 29.9871 11.1723 29.984 11.1876 29.9814C11.2226 29.9752 11.2573 29.9671 11.2916 29.9572C11.3042 29.9534 11.317 29.9504 11.3296 29.9461C11.3768 29.9309 11.4227 29.9125 11.4671 29.8911L11.4812 29.8836C11.5235 29.8622 11.5644 29.8377 11.604 29.8112C11.6089 29.8079 11.6141 29.8058 11.6189 29.8025L21.4419 22.9922C21.7888 22.7518 22 22.327 22 21.8696C22 21.4122 21.7888 20.9874 21.4419 20.747ZM12.1771 3.68766L18.5847 8.13015L12.1771 12.5724L12.1771 3.68766ZM12.1771 26.3119L12.1771 17.4274L18.5847 21.8696L12.1771 26.3119Z">
</path>
</svg>
