<svg xmlns="http://www.w3.org/2000/svg" xmlns:xlink="http://www.w3.org/1999/xlink" width="24.1634521484375" height="24.06768798828125" viewBox="0 0 24.1634521484375 24.06768798828125" fill="none">
<g filter="url(#filter_mL6j951dclYaCv7Xy1aBe)">
<path   fill-rule="evenodd"  fill="#FFFFFF"  d="M19.8398 15.0143L7.66953 15.0143C7.08124 15.0143 6.60326 14.5772 6.56649 14.0672L5.8679 3.39417C5.83113 2.81134 5.50021 2.33779 4.98546 2.0828L3.88242 1.60926C3.58827 1.49998 3.29413 1.60926 3.14705 1.90067C2.99998 2.19209 3.14705 2.4835 3.4412 2.62921L4.50747 3.10276C4.65455 3.17561 4.76485 3.32132 4.76485 3.50345L5.42668 14.1765C5.50021 15.2693 6.49295 16.1436 7.63277 16.1436L19.8398 16.1436C20.1339 16.1436 20.3913 15.8886 20.3913 15.5972C20.3913 15.3057 20.1339 15.0143 19.8398 15.0143ZM20.6855 4.85124C20.3545 4.48698 19.8766 4.26842 19.3618 4.26842L8.11075 4.26842C7.81661 4.26842 7.55923 4.5234 7.55923 4.81482C7.55923 5.10623 7.81661 5.36122 8.11075 5.36122L19.3618 5.36122C19.5456 5.36122 19.7295 5.43407 19.8398 5.57978C19.9501 5.72549 20.0236 5.90762 20.0236 6.08976L19.1412 10.8981L19.1412 10.9345C19.1044 11.2624 18.847 11.4809 18.5161 11.5174L8.84612 12.2459C8.55197 12.2823 8.33136 12.5373 8.33136 12.8287C8.36813 13.1201 8.58874 13.3387 8.88288 13.3387L8.91965 13.3387L18.5529 12.6102C19.3986 12.5373 20.0972 11.9181 20.1707 11.0802L21.0531 6.23546L21.0531 6.19904C21.1634 5.72549 21.0164 5.21551 20.6855 4.85124ZM6.0885 18.2927C6.0885 18.9964 6.66514 19.5677 7.37539 19.5677C8.08564 19.5677 8.66228 18.9964 8.66228 18.2927C8.66228 17.5891 8.08564 17.0178 7.37539 17.0178C6.66514 17.0178 6.0885 17.5891 6.0885 18.2927ZM16.3836 18.2927C16.3836 18.9964 16.9602 19.5677 17.6705 19.5677C18.3807 19.5677 18.9574 18.9964 18.9574 18.2927C18.9574 17.5891 18.3807 17.0178 17.6705 17.0178C16.9602 17.0178 16.3836 17.5891 16.3836 18.2927Z">
</path>
</g>
<defs>
<filter id="filter_mL6j951dclYaCv7Xy1aBe" x="0" y="0" width="24.1634521484375" height="24.06768798828125" filterUnits="userSpaceOnUse" color-interpolation-filters="sRGB">
<feFlood flood-opacity="0" result="feFloodId_mL6j951dclYaCv7Xy1aBe"/>
<feColorMatrix in="SourceAlpha" type="matrix" values="0 0 0 0 0 0 0 0 0 0 0 0 0 0 0 0 0 0 127 0" result="hardAlpha_mL6j951dclYaCv7Xy1aBe"/>
<feOffset dx="0" dy="1.5"/>
<feGaussianBlur stdDeviation="1.5"/>
<feComposite in2="hardAlpha_mL6j951dclYaCv7Xy1aBe" operator="out"/>
<feColorMatrix type="matrix" values="0 0 0 0 0.6313725490196078 0 0 0 0 0.011764705882352941 0 0 0 0 0.03137254901960784 0 0 0 0.3 0"/>
<feBlend mode="normal" in2="feFloodId_mL6j951dclYaCv7Xy1aBe" result="dropShadow_1_mL6j951dclYaCv7Xy1aBe"/>
<feBlend mode="normal" in="SourceGraphic" in2="dropShadow_1_mL6j951dclYaCv7Xy1aBe" result="shape_mL6j951dclYaCv7Xy1aBe"/>
</filter>
</defs>
</svg>
