<svg xmlns="http://www.w3.org/2000/svg" xmlns:xlink="http://www.w3.org/1999/xlink" width="22" height="22.0372314453125" viewBox="0 0 22 22.0372314453125" fill="none">
<path   fill-rule="evenodd"  fill="#FFFFFF" fill-opacity="0.6" d="M17.6717 11.7621L13.0043 11.7621C12.8558 11.7621 12.7145 11.7917 12.5856 11.8454C12.0934 11.951 11.7249 12.3885 11.7249 12.9119L11.7249 17.7089C11.7249 20.0956 13.6665 22.0372 16.0528 22.0372L17.6717 22.0372C20.0583 22.0372 22 20.0956 22 17.7089L22 16.09C22 13.7036 20.0583 11.7621 17.6717 11.7621ZM19.8183 17.7089C19.8183 18.8925 18.8553 19.8555 17.6717 19.8555L16.0528 19.8555C14.8693 19.8555 13.9066 18.8925 13.9066 17.7089L13.9066 13.9438L17.6717 13.9438C18.8553 13.9438 19.8183 14.9067 19.8183 16.09L19.8183 17.7089Z">
</path>
<path   fill-rule="evenodd"  fill="#FFFFFF" fill-opacity="0.6" d="M9.41391 11.8452C9.28537 11.7918 9.14369 11.7621 8.99561 11.7621L4.32836 11.7621C1.94174 11.7621 6.10352e-05 13.7036 6.10352e-05 16.09L6.10352e-05 17.7089C6.10352e-05 20.0956 1.94174 22.0372 4.32836 22.0372L5.94727 22.0372C8.33389 22.0372 10.2754 20.0956 10.2754 17.7089L10.2754 12.9119C10.2754 12.3881 9.90644 11.9506 9.41391 11.8452ZM8.09366 17.7089C8.09366 18.8925 7.13081 19.8555 5.94727 19.8555L4.32836 19.8555C3.14482 19.8555 2.18179 18.8925 2.18179 17.7089L2.18179 16.09C2.18179 14.9067 3.14482 13.9438 4.32836 13.9438L8.09366 13.9438L8.09366 17.7089Z">
</path>
<path   fill-rule="evenodd"  fill="#FFFFFF" fill-opacity="0.6" d="M4.32832 10.2752L8.99555 10.2752C9.14398 10.2752 9.28531 10.2455 9.4142 10.1919C9.90638 10.0862 10.275 9.64876 10.275 9.12533L10.275 4.32795C10.275 1.9415 8.33347 0 5.9472 0L4.3283 0C1.94168 0 0 1.9415 0 4.32795L0 5.94721C2.51973e-05 8.33365 1.9417 10.2752 4.32832 10.2752ZM2.18175 4.32795C2.18175 3.14458 3.14478 2.18173 4.32832 2.18173L5.94723 2.18173C7.1306 2.18173 8.09327 3.14458 8.09327 4.32795L8.09327 8.09342L4.32832 8.09342C3.14478 8.09342 2.18175 7.13057 2.18175 5.94721L2.18175 4.32795Z">
</path>
<path   fill-rule="evenodd"  fill="#FFFFFF" fill-opacity="0.6" d="M17.6717 0L16.0528 0C13.6662 0 11.7245 1.9415 11.7245 4.32795L11.7245 9.12533C11.7245 9.64911 12.0934 10.0866 12.586 10.1921C12.7145 10.2455 12.8562 10.2752 13.0043 10.2752L17.6717 10.2752C20.0583 10.2752 22 8.33365 22 5.94721L22 4.32795C22 1.9415 20.0583 0 17.6717 0ZM19.8183 5.94721C19.8183 7.13057 18.8553 8.09342 17.6717 8.09342L13.9062 8.09342L13.9062 4.32795C13.9062 3.14458 14.8693 2.18173 16.0528 2.18173L17.6717 2.18173C18.8553 2.18173 19.8183 3.14458 19.8183 4.32795L19.8183 5.94721Z">
</path>
</svg>
