<?xml version="1.0" standalone="no"?><!DOCTYPE svg PUBLIC "-//W3C//DTD SVG 1.1//EN" "http://www.w3.org/Graphics/SVG/1.1/DTD/svg11.dtd"><svg t="1734009877359" class="icon" viewBox="0 0 1024 1024" version="1.1" xmlns="http://www.w3.org/2000/svg" p-id="20405" xmlns:xlink="http://www.w3.org/1999/xlink" width="200" height="200"><path d="M704 384v512H192V384h512m32-64h-576a32 32 0 0 0-32 32v576a32 32 0 0 0 32 32h576a32 32 0 0 0 32-32v-576a32 32 0 0 0-32-32z" fill="#2c2c2c" p-id="20406"></path><path d="M320 512m32 0l192 0q32 0 32 32l0 0q0 32-32 32l-192 0q-32 0-32-32l0 0q0-32 32-32Z" fill="#2c2c2c" p-id="20407"></path><path d="M320 704m32 0l192 0q32 0 32 32l0 0q0 32-32 32l-192 0q-32 0-32-32l0 0q0-32 32-32Z" fill="#2c2c2c" p-id="20408"></path><path d="M928 128h-576a32 32 0 0 0-32 32V256h64V192h512v576h-64v64h96a32 32 0 0 0 32-32v-640a32 32 0 0 0-32-32z" fill="#2c2c2c" p-id="20409"></path></svg>