<svg xmlns="http://www.w3.org/2000/svg" xmlns:xlink="http://www.w3.org/1999/xlink" width="23" height="22" viewBox="0 0 23 22" fill="none">
<g opacity="0.8">
<path d="M10.0481 7.77509C9.95385 7.77532 9.86365 7.81305 9.79791 7.87976C9.73201 7.9488 9.69535 8.04011 9.69544 8.13497L9.69544 11.4093C9.69319 11.5042 9.72986 11.5961 9.79714 11.6641C9.86442 11.732 9.95663 11.7703 10.0529 11.7703L15.9069 11.7703C16.0031 11.7703 16.0953 11.732 16.1626 11.6641C16.2299 11.5961 16.2666 11.5042 16.2643 11.4093L16.2643 8.13497C16.2662 8.04018 16.2294 7.94861 16.1622 7.88091C16.0949 7.81321 16.0029 7.77507 15.9069 7.77509L10.0481 7.77509Z"   fill="#F0F0F0" >
</path>
<path d="M8.80188 8.13507C8.78992 7.44351 9.34761 6.87304 10.0482 6.86017L15.9069 6.86017C16.6075 6.87304 17.1652 7.44351 17.1533 8.13507L17.1533 11.4093C17.155 11.7454 17.0243 12.0689 16.7887 12.3114C16.5588 12.5496 16.2402 12.6847 15.9069 12.6854L10.0482 12.6854C9.34714 12.6725 8.78926 12.1014 8.80188 11.4093L8.80188 8.13507Z"   fill="url(#linear_fill_FhNYGozMx5Dn5lmNw9Ri0)" >
</path>
<path d="M15.2886 9.77216C15.2892 9.89269 15.2421 10.0087 15.1575 10.0956C15.0753 10.1811 14.9612 10.2295 14.8417 10.2297L11.117 10.2297C10.9556 10.2287 10.8073 10.1414 10.7298 10.0015C10.6512 9.85887 10.6512 9.68663 10.7298 9.544C10.8052 9.40123 10.9539 9.31088 11.117 9.30878L14.8417 9.30878C14.9612 9.30892 15.0753 9.35738 15.1575 9.44285C15.2421 9.52973 15.2892 9.64575 15.2886 9.76628L15.2886 9.77216Z"   fill="#F7ECEC" >
</path>
<path   fill-rule="evenodd"  fill="url(#linear_fill_e0_BK629WUiWxnKVyiqqH_0)"  d="M5.60491 6.49904C5.60267 6.37988 5.6485 6.26473 5.7323 6.17892C5.8161 6.09312 5.931 6.0437 6.05173 6.04153L7.11695 6.04153C7.66797 6.05183 8.10635 6.50085 8.09638 7.04475L8.09638 13.3181C8.09571 13.3664 8.13448 13.4062 8.18336 13.4075L16.7063 13.4075C16.9623 13.4075 17.1698 13.6123 17.1698 13.865C17.1698 14.1177 16.9623 14.3225 16.7063 14.3225L16.0879 14.3225L16.0879 14.6824C16.108 15.1347 15.8749 15.5614 15.481 15.7935C15.0872 16.0256 14.596 16.0256 14.2022 15.7935C13.8083 15.5614 13.5752 15.1347 13.5953 14.6824L13.5953 14.3225L11.2932 14.3225L11.2932 14.6824C11.3073 15.1307 11.073 15.5511 10.6818 15.7794C10.2905 16.0077 9.80446 16.0077 9.41325 15.7794C9.02203 15.5511 8.78772 15.1307 8.80177 14.6824L8.80177 14.3225L8.18336 14.3225C7.63422 14.3096 7.19871 13.8614 7.2087 13.3193L7.2087 7.04358C7.20868 7.02019 7.19925 6.99777 7.18248 6.98124C7.16679 6.9646 7.14475 6.95521 7.12172 6.95537L6.05173 6.95537C5.93243 6.95469 5.81851 6.90631 5.73597 6.82129C5.65197 6.73401 5.60506 6.61826 5.60491 6.49786L5.60491 6.49904ZM14.4889 14.3225L14.4889 14.6824C14.4658 14.8204 14.5276 14.9589 14.6463 15.0353C14.765 15.1117 14.9182 15.1117 15.0369 15.0353C15.1556 14.9589 15.2174 14.8204 15.1943 14.6824L15.1943 14.3225L14.4889 14.3225ZM10.3996 14.3225L9.69541 14.3225L9.69541 14.6824C9.6708 14.821 9.73203 14.9608 9.85119 15.0381C9.97035 15.1154 10.1247 15.1154 10.2438 15.0381C10.363 14.9608 10.4242 14.821 10.3996 14.6824L10.3996 14.3225Z">
</path>
<path   fill-rule="evenodd"  fill="url(#linear_fill_kHnGoZnbgB2srT2sTqebS_0)"  d="M22.4066 11.581C22.7315 11.581 22.9952 11.3207 22.9952 11C22.9952 10.6793 22.7315 10.419 22.4066 10.419L20.9768 10.419L20.9768 8.17735L22.4066 8.17735C22.7315 8.17735 22.9952 7.91701 22.9952 7.59635C22.9952 7.27569 22.7315 7.01535 22.4066 7.01535L20.9768 7.01535L20.9768 3.62229C20.9592 2.69339 20.1843 1.95322 19.2431 1.96633L15.6828 1.96633L15.6828 0.602052C15.6684 0.280147 15.3998 0.0264923 15.0734 0.0264923C14.7469 0.0264923 14.4783 0.280147 14.4639 0.602052L14.4639 1.96633L12.1154 1.96633L12.1154 0.602052C12.101 0.280147 11.8324 0.0264923 11.506 0.0264923C11.1795 0.0264923 10.9109 0.280147 10.8965 0.602052L10.8965 1.96633L8.54919 1.96633L8.54919 0.602052C8.54912 0.26953 8.27601 -1.31285e-14 7.93913 0C7.60224 1.30522e-14 7.32913 0.26953 7.32907 0.602052L7.32907 1.96633L3.7533 1.96633C2.81195 1.95322 2.03671 2.6932 2.01844 3.62229L2.01844 7.01888L0.588613 7.01888C0.263749 7.01888 1.03894e-08 7.27922 1.03894e-08 7.59988C1.03894e-08 7.92054 0.263749 8.18087 0.588613 8.18087L2.01844 8.18087L2.01844 10.4155L0.588613 10.4155C0.263749 10.4155 1.03894e-08 10.6758 1.03894e-08 10.9965C1.03894e-08 11.3171 0.263749 11.5775 0.588613 11.5775L2.01844 11.5775L2.01844 13.8121L0.588613 13.8121C0.378322 13.8121 0.184005 13.9228 0.0788592 14.1026C-0.0262864 14.2823 -0.0262864 14.5038 0.0788592 14.6836C0.184005 14.8633 0.378322 14.9741 0.588613 14.9741L2.01844 14.9741L2.01844 18.3707C2.03281 19.3025 2.80921 20.0468 3.7533 20.0337L7.32787 20.0337L7.32787 21.3979C7.32794 21.7305 7.60105 22 7.93794 22C8.27482 22 8.54793 21.7305 8.548 21.3979L8.548 20.0337L10.9024 20.0337L10.9024 21.3979C10.9025 21.7305 11.1756 22 11.5125 22C11.8494 22 12.1225 21.7305 12.1226 21.3979L12.1226 20.0337L14.4699 20.0337L14.4699 21.3979C14.4843 21.7199 14.7529 21.9735 15.0793 21.9735C15.4058 21.9735 15.6744 21.7199 15.6888 21.3979L15.6888 20.0337L19.2431 20.0337C20.1859 20.0487 20.9633 19.3082 20.9816 18.3777L20.9816 14.9811L22.4114 14.9811C22.7362 14.9811 23 14.7208 23 14.4001C23 14.0795 22.7362 13.8191 22.4114 13.8191L20.9816 13.8191L20.9816 11.5845L22.4066 11.581ZM19.7555 18.3777C19.7503 18.6553 19.5184 18.8763 19.2372 18.8717L3.7533 18.8717C3.61815 18.8742 3.48755 18.8235 3.39031 18.7308C3.29306 18.6382 3.23718 18.5111 3.23499 18.3777L3.23499 3.62229C3.24021 3.34473 3.47209 3.12374 3.7533 3.12833L19.2431 3.12833C19.5243 3.12374 19.7562 3.34473 19.7614 3.62229L19.7555 18.3777Z">
</path>
</g>
<defs>
<linearGradient id="linear_fill_FhNYGozMx5Dn5lmNw9Ri0" x1="12.982574462890625" y1="11.35357666015625" x2="12.982574462890625" y2="6.86016845703125" gradientUnits="userSpaceOnUse">
<stop offset="0" stop-color="#FF6C72"  />
<stop offset="1" stop-color="#FF8343"  />
</linearGradient>
<linearGradient id="linear_fill_e0_BK629WUiWxnKVyiqqH_0" x1="11.394271850585938" y1="13.69818115234375" x2="11.394271850585938" y2="6.041534423828125" gradientUnits="userSpaceOnUse">
<stop offset="0" stop-color="#FF6C72"  />
<stop offset="1" stop-color="#FF8343"  />
</linearGradient>
<linearGradient id="linear_fill_kHnGoZnbgB2srT2sTqebS_0" x1="11.5137939453125" y1="16.970123291015625" x2="11.5137939453125" y2="0" gradientUnits="userSpaceOnUse">
<stop offset="0" stop-color="#FF6C72"  />
<stop offset="1" stop-color="#FF8343"  />
</linearGradient>
</defs>
</svg>
