<svg xmlns="http://www.w3.org/2000/svg" xmlns:xlink="http://www.w3.org/1999/xlink" width="12" height="12" viewBox="0 0 12 12" fill="none">
<path d="M6.4 10.5L6.4 9.75L8 9.75L8 10.5L9.6 10.5L9.6 4.875C9.6 3 8 1.5 6 1.5C4 1.5 2.4 3 2.4 4.875L2.4 12L0 12L0 7.5L0.8 7.5L0.8 4.875C0.8 2.175 3.12 0 6 0C8.88 0 11.2 2.175 11.2 4.875L11.2 7.5L12 7.5L12 12L6.4 12L6.4 10.5Z"   fill="url(#linear_fill_ZV4JOTJG4qfWLZ6RriJVW)" >
</path>
<defs>
<linearGradient id="linear_fill_ZV4JOTJG4qfWLZ6RriJVW" x1="6.0072021484375" y1="9.25640869140625" x2="6.0072021484375" y2="0" gradientUnits="userSpaceOnUse">
<stop offset="0" stop-color="#FF6C72"  />
<stop offset="1" stop-color="#FF8343"  />
</linearGradient>
</defs>
</svg>
