<svg xmlns="http://www.w3.org/2000/svg" xmlns:xlink="http://www.w3.org/1999/xlink" width="23.30000114440918" height="23.29998779296875" viewBox="0 0 23.30000114440918 23.29998779296875" fill="none">
<g opacity="0.8">
<path   fill-rule="evenodd"  fill="url(#linear_fill_1Gp71lgIKkB3ai1c0F4jC_0)"  d="M7.79263 18.3575C8.08103 20.0838 6.92743 21.6663 5.19702 21.954C3.46661 22.2417 1.88041 21.0908 1.59201 19.3645C1.3036 17.6382 2.45721 16.0557 4.18762 15.768C4.54812 15.6961 4.83652 15.6961 5.19702 15.768C5.55752 15.4084 5.84592 15.0487 6.13433 14.761C4.54812 14.2575 2.81771 14.6171 1.66411 15.768C-0.0663013 17.4943 -0.0663013 20.2277 1.66411 21.8821C3.39451 23.5365 6.13433 23.6084 7.79263 21.8821C8.94624 20.7312 9.37884 19.0049 8.80204 17.4224C8.51364 17.7101 8.15313 17.9978 7.79263 18.3575ZM17.382 14.6171C17.6704 14.9768 17.9588 15.2645 18.2472 15.6241C19.9776 15.3364 21.5638 16.4873 21.7801 18.2136C21.9964 19.94 20.9149 21.5224 19.1845 21.7382C17.4541 22.0259 15.8679 20.8751 15.6516 19.1487C15.5795 18.7891 15.5795 18.5014 15.6516 18.1417C15.2911 17.7821 14.9306 17.4943 14.6422 17.2785C14.1375 18.861 14.498 20.5873 15.6516 21.7382C17.382 23.4645 20.1218 23.4645 21.7801 21.7382C23.4384 20.0119 23.5105 17.2785 21.7801 15.6241C20.6986 14.4733 18.9682 14.0417 17.382 14.6171ZM15.7958 5.26618C15.5074 3.53985 16.661 1.95739 18.3914 1.7416C20.1218 1.5258 21.708 2.60476 21.9243 4.33109C22.1406 6.05741 21.0591 7.63988 19.3287 7.85567C18.9682 7.9276 18.6798 7.9276 18.3193 7.85567C17.9588 8.21532 17.6704 8.57497 17.382 8.86269C18.9682 9.36621 20.6986 9.00656 21.8522 7.85567C23.5826 6.12934 23.5826 3.39599 21.8522 1.7416C20.1218 0.0871984 17.382 0.0152681 15.7237 1.7416C14.5701 2.89248 14.1375 4.61881 14.7143 6.20127C15.0027 5.91355 15.3632 5.62583 15.7958 5.26618ZM5.99013 8.57497C5.70172 8.21532 5.41332 7.9276 5.05282 7.56795C3.32241 7.85567 1.73621 6.70479 1.44781 4.97846C1.1594 3.25213 2.31301 1.66966 4.04342 1.38194C5.77382 1.09422 7.36003 2.24511 7.64843 3.97143C7.72053 4.33109 7.72053 4.61881 7.64843 4.97846C8.00893 5.33811 8.36944 5.62583 8.65784 5.91355C9.23464 4.33109 8.80204 2.60476 7.64843 1.38194C5.91802 -0.272453 3.17821 -0.272453 1.44781 1.45387C-0.282602 3.1802 -0.282602 5.91355 1.44781 7.56795C2.67351 8.71883 4.40392 9.15042 5.99013 8.57497ZM11.8303 10.5171C11.1092 10.5171 10.5324 11.0925 10.5324 11.8118C10.5324 12.5311 11.1092 13.1066 11.8303 13.1066C12.5513 13.1066 13.1281 12.5311 13.1281 11.8118C13.1281 11.4522 12.9839 11.1645 12.7676 10.9487C12.4792 10.661 12.1908 10.5171 11.8303 10.5171ZM17.8867 19.1487C17.9588 19.2207 18.103 19.4364 18.1751 19.4364C18.6077 19.7961 19.2566 19.868 19.6171 19.5084C19.9776 19.1487 19.9776 18.5733 19.6171 18.1417C19.545 18.0698 19.4729 17.9259 19.3287 17.854L19.2566 17.7821C18.2472 16.847 15.0027 13.754 15.0748 11.8838L15.0748 11.3803C15.0748 9.51007 18.2472 6.41706 19.2566 5.5539L19.3287 5.48197C19.4008 5.41004 19.545 5.33811 19.6171 5.19425C19.9055 4.76267 19.9776 4.18723 19.6171 3.82757C19.2566 3.46792 18.6077 3.46792 18.1751 3.8995L17.8867 4.18723C16.9494 5.19425 14.0654 8.14339 12.1908 8.28725L11.4697 8.28725C9.59514 8.21532 6.56693 5.12232 5.70172 4.1153L5.62962 4.04336C5.55752 4.1153 5.41332 4.04336 5.34122 3.97143C4.90862 3.68371 4.33182 3.61178 3.97132 3.97143C3.61081 4.33109 3.61081 4.97846 4.04342 5.41004L4.33182 5.69776C5.34122 6.63286 8.15313 9.36621 8.44154 11.2364L8.44154 12.4592C8.08103 14.2575 5.41332 16.9189 4.40392 17.854C4.33182 17.9259 4.11552 18.0698 4.11552 18.1417C3.75502 18.5733 3.68291 19.2207 4.04342 19.5803C4.40392 19.94 4.98072 19.94 5.41332 19.5803C5.48542 19.5084 5.62962 19.4364 5.70172 19.2926L5.77382 19.2207C6.63903 18.2856 9.59514 15.2645 11.4697 15.0487L12.4071 15.0487C14.0654 15.2645 16.9494 18.1417 17.8867 19.1487ZM13.2002 13.1785C12.4071 13.9697 11.1813 13.9697 10.3882 13.1785C9.59514 12.3873 9.59514 11.1645 10.3882 10.3732C11.1813 9.582 12.4071 9.582 13.2002 10.3732C13.9933 11.1645 13.9933 12.3873 13.2002 13.1785C13.2723 13.1785 13.2002 13.1785 13.2002 13.1785Z">
</path>
<path    stroke="rgba(255, 110, 110, 1)" stroke-width="0.3"    d="M7.79263 18.3575C8.08103 20.0838 6.92743 21.6663 5.19702 21.954C3.46661 22.2417 1.88041 21.0908 1.59201 19.3645C1.3036 17.6382 2.45721 16.0557 4.18762 15.768C4.54812 15.6961 4.83652 15.6961 5.19702 15.768C5.55752 15.4084 5.84592 15.0487 6.13433 14.761C4.54812 14.2575 2.81771 14.6171 1.66411 15.768C-0.0663013 17.4943 -0.0663013 20.2277 1.66411 21.8821C3.39451 23.5365 6.13433 23.6084 7.79263 21.8821C8.94624 20.7312 9.37884 19.0049 8.80204 17.4224C8.51364 17.7101 8.15313 17.9978 7.79263 18.3575ZM17.382 14.6171C17.6704 14.9768 17.9588 15.2645 18.2472 15.6241C19.9776 15.3364 21.5638 16.4873 21.7801 18.2136C21.9964 19.94 20.9149 21.5224 19.1845 21.7382C17.4541 22.0259 15.8679 20.8751 15.6516 19.1487C15.5795 18.7891 15.5795 18.5014 15.6516 18.1417C15.2911 17.7821 14.9306 17.4943 14.6422 17.2785C14.1375 18.861 14.498 20.5873 15.6516 21.7382C17.382 23.4645 20.1218 23.4645 21.7801 21.7382C23.4384 20.0119 23.5105 17.2785 21.7801 15.6241C20.6986 14.4733 18.9682 14.0417 17.382 14.6171ZM15.7958 5.26618C15.5074 3.53985 16.661 1.95739 18.3914 1.7416C20.1218 1.5258 21.708 2.60476 21.9243 4.33109C22.1406 6.05741 21.0591 7.63988 19.3287 7.85567C18.9682 7.9276 18.6798 7.9276 18.3193 7.85567C17.9588 8.21532 17.6704 8.57497 17.382 8.86269C18.9682 9.36621 20.6986 9.00656 21.8522 7.85567C23.5826 6.12934 23.5826 3.39599 21.8522 1.7416C20.1218 0.0871984 17.382 0.0152681 15.7237 1.7416C14.5701 2.89248 14.1375 4.61881 14.7143 6.20127C15.0027 5.91355 15.3632 5.62583 15.7958 5.26618ZM5.99013 8.57497C5.70172 8.21532 5.41332 7.9276 5.05282 7.56795C3.32241 7.85567 1.73621 6.70479 1.44781 4.97846C1.1594 3.25213 2.31301 1.66966 4.04342 1.38194C5.77382 1.09422 7.36003 2.24511 7.64843 3.97143C7.72053 4.33109 7.72053 4.61881 7.64843 4.97846C8.00893 5.33811 8.36944 5.62583 8.65784 5.91355C9.23464 4.33109 8.80204 2.60476 7.64843 1.38194C5.91802 -0.272453 3.17821 -0.272453 1.44781 1.45387C-0.282602 3.1802 -0.282602 5.91355 1.44781 7.56795C2.67351 8.71883 4.40392 9.15042 5.99013 8.57497ZM11.8303 10.5171C11.1092 10.5171 10.5324 11.0925 10.5324 11.8118C10.5324 12.5311 11.1092 13.1066 11.8303 13.1066C12.5513 13.1066 13.1281 12.5311 13.1281 11.8118C13.1281 11.4522 12.9839 11.1645 12.7676 10.9487C12.4792 10.661 12.1908 10.5171 11.8303 10.5171ZM17.8867 19.1487C17.9588 19.2207 18.103 19.4364 18.1751 19.4364C18.6077 19.7961 19.2566 19.868 19.6171 19.5084C19.9776 19.1487 19.9776 18.5733 19.6171 18.1417C19.545 18.0698 19.4729 17.9259 19.3287 17.854L19.2566 17.7821C18.2472 16.847 15.0027 13.754 15.0748 11.8838L15.0748 11.3803C15.0748 9.51007 18.2472 6.41706 19.2566 5.5539L19.3287 5.48197C19.4008 5.41004 19.545 5.33811 19.6171 5.19425C19.9055 4.76267 19.9776 4.18723 19.6171 3.82757C19.2566 3.46792 18.6077 3.46792 18.1751 3.8995L17.8867 4.18723C16.9494 5.19425 14.0654 8.14339 12.1908 8.28725L11.4697 8.28725C9.59514 8.21532 6.56693 5.12232 5.70172 4.1153L5.62962 4.04336C5.55752 4.1153 5.41332 4.04336 5.34122 3.97143C4.90862 3.68371 4.33182 3.61178 3.97132 3.97143C3.61081 4.33109 3.61081 4.97846 4.04342 5.41004L4.33182 5.69776C5.34122 6.63286 8.15313 9.36621 8.44154 11.2364L8.44154 12.4592C8.08103 14.2575 5.41332 16.9189 4.40392 17.854C4.33182 17.9259 4.11552 18.0698 4.11552 18.1417C3.75502 18.5733 3.68291 19.2207 4.04342 19.5803C4.40392 19.94 4.98072 19.94 5.41332 19.5803C5.48542 19.5084 5.62962 19.4364 5.70172 19.2926L5.77382 19.2207C6.63903 18.2856 9.59514 15.2645 11.4697 15.0487L12.4071 15.0487C14.0654 15.2645 16.9494 18.1417 17.8867 19.1487ZM13.2002 13.1785C12.4071 13.9697 11.1813 13.9697 10.3882 13.1785C9.59514 12.3873 9.59514 11.1645 10.3882 10.3732C11.1813 9.582 12.4071 9.582 13.2002 10.3732C13.9933 11.1645 13.9933 12.3873 13.2002 13.1785C13.2723 13.1785 13.2002 13.1785 13.2002 13.1785Z">
</path>
</g>
<defs>
<linearGradient id="linear_fill_1Gp71lgIKkB3ai1c0F4jC_0" x1="11.663801193237305" y1="17.891510009765625" x2="11.663801193237305" y2="0.149993896484375" gradientUnits="userSpaceOnUse">
<stop offset="0" stop-color="#FF6C72"  />
<stop offset="1" stop-color="#FF8343"  />
</linearGradient>
</defs>
</svg>
