<svg xmlns="http://www.w3.org/2000/svg" xmlns:xlink="http://www.w3.org/1999/xlink" width="23.000030517578125" height="24" viewBox="0 0 23.000030517578125 24" fill="none">
<g opacity="0.8">
<path   fill-rule="evenodd"  fill="#FF6C72"  d="M11.4978 0C5.27443 0 0.229323 4.95238 0.229323 11.0613L0.229248 11.2839C0.229248 11.4931 0.47692 11.8095 0.690066 11.8095C0.84269 11.8801 1.00223 11.9355 1.16624 11.9746L1.16624 14.1639L1.91517 14.1639L1.91517 12.0275C2.14506 12.0103 2.37166 11.9637 2.58921 11.8889C2.80236 11.8889 2.88436 11.7162 2.96368 11.5219C3.03857 11.3385 3.06104 11.2131 3.01738 11.1651C3.16709 6.68368 7.05457 3.02572 11.6521 3.02572C16.253 3.02572 20.143 6.61844 20.2873 11.1017C20.249 11.1485 20.2446 11.3757 20.264 11.4485C20.3239 11.6725 20.4734 11.8095 20.6866 11.8095C20.8392 11.8801 20.9987 11.9355 21.1627 11.9746L21.1627 14.1639L21.9114 14.1639L21.9114 12.0275C22.1413 12.0103 22.3679 11.9637 22.5854 11.8889C22.7986 11.8889 22.9097 11.7253 22.9599 11.5219C22.9873 11.4109 22.986 11.3458 22.9848 11.2806C22.984 11.2389 22.9832 11.1971 22.9898 11.1433C22.99 11.116 22.9909 11.0887 22.9909 11.0613C22.9909 4.9531 17.7225 0.00117023 11.5 2.0738e-07L11.4978 0ZM3.10491 4.7731C3.00069 4.90438 2.89952 5.03801 2.80154 5.17386C2.92011 5.03423 3.0204 4.90029 3.10491 4.7731ZM22.1701 9.51008L22 9L21.4652 7.12801C21.7955 7.88501 22.0353 8.68362 22.1701 9.51008Z">
</path>
<path   fill-rule="evenodd"  fill="url(#linear_fill_QRIXn6TelSKe7I4vn0EuR_1)"  d="M11.4978 0C5.27443 0 0.229323 4.95238 0.229323 11.0613L0.229248 11.2839C0.229248 11.4931 0.47692 11.8095 0.690066 11.8095C0.84269 11.8801 1.00223 11.9355 1.16624 11.9746L1.16624 14.1639L1.91517 14.1639L1.91517 12.0275C2.14506 12.0103 2.37166 11.9637 2.58921 11.8889C2.80236 11.8889 2.88436 11.7162 2.96368 11.5219C3.03857 11.3385 3.06104 11.2131 3.01738 11.1651C3.16709 6.68368 7.05457 3.02572 11.6521 3.02572C16.253 3.02572 20.143 6.61844 20.2873 11.1017C20.249 11.1485 20.2446 11.3757 20.264 11.4485C20.3239 11.6725 20.4734 11.8095 20.6866 11.8095C20.8392 11.8801 20.9987 11.9355 21.1627 11.9746L21.1627 14.1639L21.9114 14.1639L21.9114 12.0275C22.1413 12.0103 22.3679 11.9637 22.5854 11.8889C22.7986 11.8889 22.9097 11.7253 22.9599 11.5219C22.9873 11.4109 22.986 11.3458 22.9848 11.2806C22.984 11.2389 22.9832 11.1971 22.9898 11.1433C22.99 11.116 22.9909 11.0887 22.9909 11.0613C22.9909 4.9531 17.7225 0.00117023 11.5 2.0738e-07L11.4978 0ZM3.10491 4.7731C3.00069 4.90438 2.89952 5.03801 2.80154 5.17386C2.92011 5.03423 3.0204 4.90029 3.10491 4.7731ZM22.1701 9.51008L22 9L21.4652 7.12801C21.7955 7.88501 22.0353 8.68362 22.1701 9.51008Z">
</path>
</g>
<path d="M21.456 16.9733L20.8986 16.4243L18.2153 18.6017L18.7727 19.1508L21.456 16.9733Z"   fill="#FF6C72" fill-opacity="0.5">
</path>
<path d="M1.46509 16.9853L2.0193 16.438L4.68707 18.6081L4.13286 19.1554L1.46509 16.9853Z"   fill="#FF6C72" fill-opacity="0.5">
</path>
<g opacity="0.8">
<path d="M6.76905 24C6.57166 23.9989 6.3829 23.9205 6.24486 23.7823C6.10682 23.644 6.03099 23.4574 6.03428 23.264L6.03428 23.2605C6.01191 23.1775 5.99999 23.0901 5.99999 23L5.99999 21.2202C4.93496 20.9167 4.16779 20.0727 4.16779 19.077C4.16779 18.0814 4.93496 17.2374 5.99999 16.9338L5.99999 14.5C5.99999 14.4098 6.01191 14.3225 6.03428 14.2394L6.03428 14.1638C6.03428 13.7585 6.36958 13.43 6.78321 13.43L9.62915 13.43C9.74349 13.43 9.84612 13.4551 9.93478 13.5L9.99999 13.5L9.99999 13.5382C10.1922 13.6673 10.3032 13.8992 10.3032 14.1638L10.3032 23.264C10.3032 23.5172 10.1876 23.7412 9.99999 23.8738L9.99999 24L9.59679 24L9.59335 24L6.76905 24ZM15.9627 24L15.9593 24L13.135 24C12.9376 23.9989 12.7488 23.9205 12.6108 23.7823C12.4727 23.644 12.3969 23.4574 12.4002 23.264L12.4002 14.1638C12.4002 13.7585 12.7355 13.43 13.1491 13.43L15.9951 13.43C16.1094 13.43 16.2121 13.4551 16.3007 13.5L16.5 13.5L16.5 13.6599C16.6088 13.7913 16.6691 13.9687 16.6691 14.1638L16.6691 23.264C16.6691 23.4495 16.607 23.6195 16.5 23.7492L16.5 24L15.9627 24ZM16.6712 21.4481L16.6712 20.9144C17.5597 20.7146 18.2148 20.0366 18.2148 19.2286C18.2148 18.4206 17.5597 17.7425 16.6712 17.5427L16.6712 17.009C17.9042 17.2188 18.8323 18.1328 18.8323 19.2286C18.8323 20.3243 17.9042 21.2385 16.6712 21.4481ZM5.99999 20.6624L5.99999 17.4916C5.28362 17.7677 4.78521 18.3726 4.78521 19.077C4.78521 19.7814 5.28362 20.3862 5.99999 20.6624Z" fill-rule="evenodd"  fill="url(#linear_fill_FDN7QyPEkIe8Wz8048DqU)" >
</path>
</g>
<path   fill-rule="evenodd"  fill="#FF6C72" fill-opacity="0.5" d="M3.08725 15.5193C3.08576 16.3544 2.394 17.0303 1.54183 17.0293C0.68966 17.0283 -0.000495023 16.3509 2.66416e-07 15.5158C0.000495555 14.6808 0.691454 14.0041 1.54362 14.0041C1.95338 14.0044 2.3462 14.1643 2.63569 14.4484C2.92518 14.7326 3.08761 15.1178 3.08725 15.5193ZM1.54362 14.5345C1.13693 14.5338 0.769933 14.7734 0.613864 15.1414C0.457796 15.5094 0.543417 15.9333 0.830777 16.2153C1.11814 16.4973 1.5506 16.5819 1.92639 16.4295C2.30218 16.2771 2.54722 15.9179 2.54719 15.5193C2.54741 15.2583 2.4418 15.0079 2.25359 14.8232C2.06538 14.6385 1.80999 14.5346 1.54362 14.5345Z">
</path>
<path   fill-rule="evenodd"  fill="#FF6C72" fill-opacity="0.5" d="M23 15.5146C22.9985 16.3497 22.3068 17.0256 21.4546 17.0246C20.6024 17.0236 19.9123 16.3462 19.9128 15.5111C19.9133 14.6761 20.6042 13.9994 21.4564 13.9994C21.8662 13.9997 22.259 14.1596 22.5485 14.4437C22.838 14.7279 23.0004 15.1131 23 15.5146ZM21.4564 14.5297C21.0497 14.5291 20.6827 14.7686 20.5267 15.1366C20.3706 15.5046 20.4562 15.9285 20.7435 16.2105C21.0309 16.4926 21.4633 16.5771 21.8391 16.4247C22.2149 16.2724 22.46 15.9131 22.46 15.5146C22.4602 15.2536 22.3546 15.0032 22.1664 14.8185C21.9782 14.6337 21.7228 14.5299 21.4564 14.5297Z">
</path>
<defs>
<linearGradient id="linear_fill_QRIXn6TelSKe7I4vn0EuR_1" x1="11.623733520507812" y1="12.3441162109375" x2="11.623733520507812" y2="0" gradientUnits="userSpaceOnUse">
<stop offset="0" stop-color="#FF6C72"  />
<stop offset="1" stop-color="#FF8343"  />
</linearGradient>
<linearGradient id="linear_fill_FDN7QyPEkIe8Wz8048DqU" x1="11.508827209472656" y1="22.6419677734375" x2="11.508827209472656" y2="13.429962158203125" gradientUnits="userSpaceOnUse">
<stop offset="0" stop-color="#FF6C72"  />
<stop offset="1" stop-color="#FF8343"  />
</linearGradient>
</defs>
</svg>
