<svg xmlns="http://www.w3.org/2000/svg" xmlns:xlink="http://www.w3.org/1999/xlink" width="22" height="22" viewBox="0 0 22 22" fill="none">
<path   fill-rule="evenodd"  fill="url(#linear_fill_yH9O40FyVGEOi07R95sGR_0)"  d="M6.85734 12.1868C6.84298 12.2057 6.82863 12.2255 6.82223 12.2495L5.71533 16.4454C5.65069 16.6897 5.71693 16.9529 5.89173 17.1385C6.02262 17.2706 6.19499 17.3432 6.37854 17.3432C6.4392 17.3432 6.49985 17.3357 6.5597 17.3192L10.5891 16.183C10.5956 16.183 10.5987 16.1888 10.6035 16.1888C10.6498 16.1888 10.6953 16.1714 10.7296 16.1351L21.5044 4.99632C21.8244 4.66504 22 4.21367 22 3.7227C22 3.16613 21.7717 2.61 21.3719 2.1978L20.3543 1.14408C19.9553 0.730661 19.4166 0.494263 18.8787 0.494263C18.4039 0.494263 17.9673 0.675814 17.6464 1.00626L6.8733 12.148C6.86216 12.1587 6.86533 12.1744 6.85734 12.1868ZM20.4501 3.90547L19.3798 5.01122L17.6448 3.18884L18.6999 2.09797C18.8667 1.92471 19.1899 1.94989 19.3815 2.14871L20.3997 3.20246C20.506 3.31221 20.5666 3.45823 20.5666 3.60263C20.5658 3.72107 20.5251 3.82835 20.4501 3.90547ZM8.77353 12.3617L16.5483 4.3226L18.2841 6.1462L10.5237 14.1696L8.77353 12.3617ZM7.35695 15.6211L7.91877 13.4889L9.41756 15.0385L7.35695 15.6211Z">
</path>
<path d="M21.1325 8.31968C20.7247 8.31968 20.3903 8.66253 20.3887 9.08996L20.3887 19.475C20.3887 20.0196 19.9609 20.4619 19.4334 20.4619L2.44249 20.4619C1.91577 20.4619 1.48638 20.0196 1.48638 19.475L1.48638 2.5246C1.48638 1.97954 1.91577 1.53686 2.44249 1.53686L13.3856 1.53686C13.7958 1.53686 14.1287 1.19239 14.1287 0.768203C14.1287 0.344925 13.7958 7.9135e-16 13.3856 7.9135e-16L2.32918 0C1.04509 0 3.82686e-16 1.07974 3.82686e-16 2.40823L0 19.5922C0 20.9207 1.04509 22 2.32918 22L19.5459 22C20.8308 22 21.8755 20.9207 21.8755 19.5922L21.8755 9.08501C21.8738 8.66253 21.5403 8.31968 21.1325 8.31968Z"   fill="url(#linear_fill_9GLHHolbhFS6mNODCjL8X)" >
</path>
<defs>
<linearGradient id="linear_fill_yH9O40FyVGEOi07R95sGR_0" x1="13.85528564453125" y1="13.49102783203125" x2="13.85528564453125" y2="0.4942626953125" gradientUnits="userSpaceOnUse">
<stop offset="0" stop-color="#FF6C72"  />
<stop offset="1" stop-color="#FF8343"  />
</linearGradient>
<linearGradient id="linear_fill_9GLHHolbhFS6mNODCjL8X" x1="10.95086669921875" y1="16.9700927734375" x2="10.95086669921875" y2="0" gradientUnits="userSpaceOnUse">
<stop offset="0" stop-color="#FF6C72"  />
<stop offset="1" stop-color="#FF8343"  />
</linearGradient>
</defs>
</svg>
