<svg xmlns="http://www.w3.org/2000/svg" xmlns:xlink="http://www.w3.org/1999/xlink" width="29.5" height="16.5" viewBox="0 0 29.5 16.5" fill="none">
<path   fill-rule="evenodd"  fill="#FFFFFF"  d="M14.6832 4.45339L5.46198 8.38559L12.0104 8.38559L13.3468 12.3178L22.568 8.38559L16.0196 8.38559L14.6832 4.45339ZM27.78 5.67373L27.78 2.96186C27.78 1.47034 26.5772 0.25 25.1071 0.25L2.92281 0.25C1.45276 0.25 0.25 1.47034 0.25 2.96186L0.25 13.5381C0.25 15.0297 1.45276 16.25 2.92281 16.25L25.2408 16.25C26.7108 16.25 27.9136 15.0297 27.9136 13.5381L27.9136 10.8263C28.5818 10.8263 29.25 10.2839 29.25 9.47034L29.25 6.75847C29.1164 6.3517 28.4482 5.67373 27.78 5.67373ZM26.4435 7.02966L26.4435 9.74153L26.4435 13.6737C26.4435 14.3517 25.909 15.0297 25.1071 15.0297L2.92281 15.0297C2.25461 15.0297 1.58641 14.4873 1.58641 13.6737L1.58641 3.09746C1.58641 2.41949 2.12097 1.74153 2.92281 1.74153L25.2408 1.74153C25.909 1.74153 26.5772 2.2839 26.5772 3.09746L26.5772 7.02966L26.4435 7.02966Z">
</path>
<path    stroke="rgba(255, 255, 255, 1)" stroke-width="0.5"    d="M14.6832 4.45339L5.46198 8.38559L12.0104 8.38559L13.3468 12.3178L22.568 8.38559L16.0196 8.38559L14.6832 4.45339ZM27.78 5.67373L27.78 2.96186C27.78 1.47034 26.5772 0.25 25.1071 0.25L2.92281 0.25C1.45276 0.25 0.25 1.47034 0.25 2.96186L0.25 13.5381C0.25 15.0297 1.45276 16.25 2.92281 16.25L25.2408 16.25C26.7108 16.25 27.9136 15.0297 27.9136 13.5381L27.9136 10.8263C28.5818 10.8263 29.25 10.2839 29.25 9.47034L29.25 6.75847C29.1164 6.3517 28.4482 5.67373 27.78 5.67373ZM26.4435 7.02966L26.4435 9.74153L26.4435 13.6737C26.4435 14.3517 25.909 15.0297 25.1071 15.0297L2.92281 15.0297C2.25461 15.0297 1.58641 14.4873 1.58641 13.6737L1.58641 3.09746C1.58641 2.41949 2.12097 1.74153 2.92281 1.74153L25.2408 1.74153C25.909 1.74153 26.5772 2.2839 26.5772 3.09746L26.5772 7.02966L26.4435 7.02966Z">
</path>
</svg>
