<svg xmlns="http://www.w3.org/2000/svg" xmlns:xlink="http://www.w3.org/1999/xlink" width="22" height="19.0799560546875" viewBox="0 0 22 19.0799560546875" fill="none">
<path d="M0 16L7.31 16L11 19.08L14.6 16L22 16L22 0L0 0L0 16ZM4 8.5C4 9.33 4.67 10 5.5 10C6.33 10 7 9.33 7 8.5C7 7.67 6.33 7 5.5 7C4.67 7 4 7.67 4 8.5ZM10 8.5C10 9.33 10.67 10 11.5 10C12.33 10 13 9.33 13 8.5C13 7.67 12.33 7 11.5 7C10.67 7 10 7.67 10 8.5ZM17.5 10C18.33 10 19 9.33 19 8.5C19 7.67 18.33 7 17.5 7C16.67 7 16 7.67 16 8.5C16 9.33 16.67 10 17.5 10Z" fill-rule="evenodd"  fill="#FFFFFF" >
</path>
</svg>
