<svg xmlns="http://www.w3.org/2000/svg" xmlns:xlink="http://www.w3.org/1999/xlink" width="24.5999755859375" height="21.60009765625" viewBox="0 0 24.5999755859375 21.60009765625" fill="none">
<path   fill-rule="evenodd"  fill="#FFFFFF" fill-opacity="0.6" d="M22.4053 17.8491C23.4537 17.8491 24.3 17.3012 24.3 16.3637L24.3 1.99608C24.2989 1.05889 23.4508 0.299736 22.4053 0.300049L2.19472 0.300049C1.1463 0.300049 0.299988 1.05862 0.299988 1.99608L0.299988 16.3637C0.299988 17.2995 1.14883 17.8491 2.19472 17.8491L8.15051 17.8491L11.4076 20.9655C11.6449 21.1795 11.9675 21.2998 12.3041 21.3001C12.6407 21.3003 12.9636 21.1803 13.2013 20.9667L16.4419 17.8491L22.4053 17.8491ZM15.9208 16.7169L15.7358 16.7169L12.3076 20.1656C12.3044 20.1685 8.87304 16.7169 8.87304 16.7169L2.19472 16.7169C1.84609 16.7169 1.56315 16.6739 1.56315 16.3637L1.56315 1.99608C1.56281 1.84606 1.62932 1.70212 1.74791 1.59625C1.8665 1.49038 2.02735 1.43134 2.19472 1.43225L22.4053 1.43225C22.7539 1.43225 23.0368 1.6853 23.0368 1.99608L23.0368 16.3637C23.0368 16.6756 22.7564 16.7169 22.4053 16.7169L15.9208 16.7169ZM7.24736 10.4898C7.69864 10.4898 8.11564 10.2741 8.34128 9.92375C8.56692 9.57345 8.56692 9.14185 8.34128 8.79155C8.11564 8.44125 7.69864 8.22545 7.24736 8.22545C6.54973 8.22545 5.9842 8.73235 5.9842 9.35765C5.9842 9.98295 6.54973 10.4898 7.24736 10.4898ZM12.3 10.4898C12.7513 10.4898 13.1683 10.2741 13.3939 9.92375C13.6196 9.57345 13.6196 9.14185 13.3939 8.79155C13.1683 8.44125 12.7513 8.22545 12.3 8.22545C11.6024 8.22545 11.0368 8.73235 11.0368 9.35765C11.0368 9.98295 11.6024 10.4898 12.3 10.4898ZM17.3526 10.4898C17.8039 10.4898 18.2209 10.2741 18.4465 9.92375C18.6722 9.57345 18.6722 9.14185 18.4465 8.79155C18.2209 8.44125 17.8039 8.22545 17.3526 8.22545C16.655 8.22545 16.0895 8.73235 16.0895 9.35765C16.0895 9.98295 16.655 10.4898 17.3526 10.4898Z">
</path>
<path    stroke="rgba(255, 255, 255, 0.6)" stroke-width="0.6"    d="M22.4053 17.8491C23.4537 17.8491 24.3 17.3012 24.3 16.3637L24.3 1.99608C24.2989 1.05889 23.4508 0.299736 22.4053 0.300049L2.19472 0.300049C1.1463 0.300049 0.299988 1.05862 0.299988 1.99608L0.299988 16.3637C0.299988 17.2995 1.14883 17.8491 2.19472 17.8491L8.15051 17.8491L11.4076 20.9655C11.6449 21.1795 11.9675 21.2998 12.3041 21.3001C12.6407 21.3003 12.9636 21.1803 13.2013 20.9667L16.4419 17.8491L22.4053 17.8491ZM15.9208 16.7169L15.7358 16.7169L12.3076 20.1656C12.3044 20.1685 8.87304 16.7169 8.87304 16.7169L2.19472 16.7169C1.84609 16.7169 1.56315 16.6739 1.56315 16.3637L1.56315 1.99608C1.56281 1.84606 1.62932 1.70212 1.74791 1.59625C1.8665 1.49038 2.02735 1.43134 2.19472 1.43225L22.4053 1.43225C22.7539 1.43225 23.0368 1.6853 23.0368 1.99608L23.0368 16.3637C23.0368 16.6756 22.7564 16.7169 22.4053 16.7169L15.9208 16.7169ZM7.24736 10.4898C7.69864 10.4898 8.11564 10.2741 8.34128 9.92375C8.56692 9.57345 8.56692 9.14185 8.34128 8.79155C8.11564 8.44125 7.69864 8.22545 7.24736 8.22545C6.54973 8.22545 5.9842 8.73235 5.9842 9.35765C5.9842 9.98295 6.54973 10.4898 7.24736 10.4898ZM12.3 10.4898C12.7513 10.4898 13.1683 10.2741 13.3939 9.92375C13.6196 9.57345 13.6196 9.14185 13.3939 8.79155C13.1683 8.44125 12.7513 8.22545 12.3 8.22545C11.6024 8.22545 11.0368 8.73235 11.0368 9.35765C11.0368 9.98295 11.6024 10.4898 12.3 10.4898ZM17.3526 10.4898C17.8039 10.4898 18.2209 10.2741 18.4465 9.92375C18.6722 9.57345 18.6722 9.14185 18.4465 8.79155C18.2209 8.44125 17.8039 8.22545 17.3526 8.22545C16.655 8.22545 16.0895 8.73235 16.0895 9.35765C16.0895 9.98295 16.655 10.4898 17.3526 10.4898Z">
</path>
</svg>
