<svg xmlns="http://www.w3.org/2000/svg" xmlns:xlink="http://www.w3.org/1999/xlink" width="25.81201171875" height="8.8079833984375" viewBox="0 0 25.81201171875 8.8079833984375" fill="none">
<g >
<path     fill="#666666"  d="M-2.2471e-05 0.0120006L4.83598 0.0120006L4.83598 1.128L1.11598 1.128L1.11598 4.188L4.83598 4.188L4.83598 5.304L1.11598 5.304L1.11598 8.808L-2.2471e-05 8.808L-2.2471e-05 0.0120006ZM11.308 7.692L11.308 8.808L10.024 8.808L9.13598 7.908L9.13598 5.58L7.59998 5.58L7.59998 8.796L6.47198 8.796L6.47198 0.0120006L10.42 0.0120006L11.308 0.912001L11.308 4.692L10.42 5.58L10.252 5.58L10.252 7.692L11.308 7.692ZM10.192 1.128L7.59998 1.128L7.59998 4.476L10.192 4.476L10.192 1.128ZM17.828 7.908L16.94 8.808L13.868 8.808L12.968 7.908L12.968 0.888L13.856 4.76837e-07L16.94 4.76837e-07L17.828 0.888L17.828 7.908ZM16.7 7.692L16.7 1.104L14.096 1.104L14.096 7.692L16.7 7.692ZM23.376 8.028L22.044 8.028L20.58 3.456L20.58 8.796L19.476 8.796L19.476 0.0120006L20.58 0.0120006L22.692 6.756L24.684 0.0120006L25.812 0.0120006L25.812 8.796L24.708 8.796L24.708 3.48L23.376 8.028Z">
</path>
</g>
</svg>
