<svg xmlns="http://www.w3.org/2000/svg" xmlns:xlink="http://www.w3.org/1999/xlink" width="24" height="24.07275390625" viewBox="0 0 24 24.07275390625" fill="none">
<path d="M13.1816 1.3802L21.6725 7.47449C22.5057 8.07253 22.9999 9.0353 23 10.0609L23 19.8886C23 21.6471 21.5743 23.0728 19.8158 23.0728L15.4737 23.0728L15.4737 18.4412C15.4737 16.5229 13.9183 14.9675 12 14.9675C10.0817 14.9675 8.52632 16.5229 8.52632 18.4412L8.52632 23.0728L4.18421 23.0728C2.42566 23.0728 1 21.6471 1 19.8886L1 10.0612C1.00004 9.03549 1.49421 8.07258 2.32753 7.47449L10.8184 1.3802C11.5246 0.873267 12.4754 0.873267 13.1816 1.3802Z" stroke="rgba(255, 255, 255, 0.6)" stroke-width="2"   >
</path>
</svg>
