<svg xmlns="http://www.w3.org/2000/svg" xmlns:xlink="http://www.w3.org/1999/xlink" width="67" height="67" viewBox="0 0 67 67" fill="none">
<path d="M67 16.1C67 11.8289 65.305 7.74582 62.29 4.71C59.2541 1.69513 55.1712 -3.27147e-06 50.9 -3.27147e-06L16.1 -3.27147e-06C11.8288 -3.27147e-06 7.74596 1.69513 4.71 4.71C1.695 7.74582 0 11.8289 0 16.1L0 50.9C0 55.171 1.695 59.2541 4.71 62.29C7.74596 65.3048 11.8288 67 16.1 67L50.9 67C59.7984 67 67 59.7984 67 50.9L67 16.1ZM26.4752 11.1659L13.2852 35.9559C12.8456 36.7932 12.8456 37.7986 13.2852 38.6359L21.6352 54.3459C22.1377 55.2674 23.1074 55.8459 24.1752 55.8459L42.8252 55.8459C43.893 55.8459 44.8627 55.2674 45.3652 54.3459L53.7152 38.6359C54.1549 37.7986 54.1549 36.7932 53.7152 35.9559L40.5252 11.1659C40.3368 10.8311 40.0602 10.5636 39.7252 10.3959C38.8039 9.89342 37.6568 10.2448 37.1752 11.1659L33.4852 18.0559L29.8252 11.1659C29.6577 10.8311 29.3902 10.5636 29.0552 10.3959C28.1339 9.89342 26.9777 10.2448 26.4752 11.1659ZM18.3147 37.9611C18.0844 37.5421 18.0844 37.0396 18.3147 36.6211L27.3247 19.7211C27.4084 19.5534 27.5272 19.4259 27.6947 19.3211C28.1763 19.0908 28.7435 19.2603 28.9947 19.7211L30.7947 23.1311L25.5247 33.0411C25.2734 33.5227 25.0613 33.9988 24.9147 34.5011L24.8947 34.5711L24.8047 34.8011C24.5744 35.5967 24.4547 36.4319 24.4547 37.3111C24.4547 42.2942 28.5116 46.3511 33.4947 46.3511C38.499 46.3511 42.5447 42.2942 42.5447 37.3111C42.5447 35.678 42.1284 34.1492 41.3747 32.8511L38.8547 28.1411L36.1547 33.2011L37.2647 35.2811C37.5997 35.9094 37.7647 36.6002 37.7647 37.2911L37.7847 37.2911L37.7847 37.3711C37.7428 39.7161 35.8399 41.5811 33.4947 41.5811C31.1288 41.5811 29.2247 39.677 29.2247 37.3111L29.2247 37.2911C29.2247 37.0189 29.2421 36.7442 29.3047 36.4511L29.3047 36.3911C29.3378 36.2527 29.383 36.1109 29.4247 35.9811C29.516 35.6978 29.6311 35.4352 29.7747 35.1911L29.7747 35.1711L33.4947 28.1811L33.4947 28.2011L36.1947 23.1311L37.9947 19.7211C38.0994 19.5534 38.2272 19.4259 38.3947 19.3211C38.8553 19.0908 39.4444 19.2603 39.6747 19.7211L48.6747 36.6211C48.905 37.0396 48.905 37.5421 48.6747 37.9611L42.0847 50.3311C41.8335 50.7919 41.3481 51.0811 40.8247 51.0811L26.1647 51.0811C25.6413 51.0811 25.1659 50.7919 24.9147 50.3311L18.3147 37.9611Z" fill-rule="evenodd"  fill="url(#linear_fill_dJdhr5mxfoVMeyVcGMquV)" >
</path>
<defs>
<linearGradient id="linear_fill_dJdhr5mxfoVMeyVcGMquV" x1="33.540191650390625" y1="58.39222717285156" x2="33.540191650390625" y2="0.000396728515625" gradientUnits="userSpaceOnUse">
<stop offset="0" stop-color="#FF6C72"  />
<stop offset="1" stop-color="#FF8343"  />
</linearGradient>
</defs>
</svg>
