<svg xmlns="http://www.w3.org/2000/svg" xmlns:xlink="http://www.w3.org/1999/xlink" width="18.60308837890625" height="20.60009765625" viewBox="0 0 18.60308837890625 20.60009765625" fill="none">
<g opacity="0.6">
<path   fill-rule="evenodd"  fill="#FFFFFF"  d="M9.30414 13.6334C18.3836 13.6334 18.2936 19.3584 18.2936 19.3584C18.3624 19.8784 17.9942 20.3 17.4705 20.3L1.13776 20.3C0.614116 20.3 0.225475 19.8725 0.314658 19.3584C0.314658 19.3584 0.22302 13.6334 9.30414 13.6334ZM9.30169 0.300049L15.029 0.300049L15.029 6.13338C15.029 9.35289 12.4627 11.9667 9.30169 11.9667C6.14068 11.9667 3.57434 9.35289 3.57434 6.13338C3.57434 2.91388 6.14068 0.300049 9.30169 0.300049Z">
</path>
<path    stroke="rgba(255, 255, 255, 1)" stroke-width="0.6"    d="M9.30414 13.6334C18.3836 13.6334 18.2936 19.3584 18.2936 19.3584C18.3624 19.8784 17.9942 20.3 17.4705 20.3L1.13776 20.3C0.614116 20.3 0.225475 19.8725 0.314658 19.3584C0.314658 19.3584 0.22302 13.6334 9.30414 13.6334ZM9.30169 0.300049L15.029 0.300049L15.029 6.13338C15.029 9.35289 12.4627 11.9667 9.30169 11.9667C6.14068 11.9667 3.57434 9.35289 3.57434 6.13338C3.57434 2.91388 6.14068 0.300049 9.30169 0.300049Z">
</path>
</g>
</svg>
