<svg xmlns="http://www.w3.org/2000/svg" xmlns:xlink="http://www.w3.org/1999/xlink" width="10.000018119812012" height="10" viewBox="0 0 10.000018119812012 10" fill="none">
<path   fill-rule="evenodd"  fill="#FFFFFF" fill-opacity="0.7" d="M3.11701 5.53939C3.11048 5.548 3.10395 5.557 3.10105 5.56788L2.59791 7.47514C2.56853 7.58617 2.59864 7.70581 2.67809 7.79018C2.73759 7.8502 2.81594 7.88321 2.89937 7.88321C2.92694 7.88321 2.95451 7.87983 2.98171 7.87232L4.81327 7.35585C4.81619 7.35585 4.81765 7.35848 4.81981 7.35848C4.84084 7.35848 4.86154 7.3506 4.87714 7.33408L9.77474 2.271C9.9202 2.12042 10 1.91525 10 1.69208C10 1.4391 9.89627 1.18631 9.71452 0.998946L9.25199 0.519981C9.07063 0.332063 8.82575 0.224609 8.58125 0.224609C8.36543 0.224609 8.16699 0.307133 8.02114 0.457338L3.12426 5.52176C3.1192 5.52662 3.12064 5.53375 3.11701 5.53939ZM9.29552 1.77516L8.80905 2.27777L8.02042 1.44942L8.5 0.953566C8.57581 0.874811 8.72271 0.88626 8.80979 0.976631L9.27264 1.45561C9.32092 1.5055 9.34848 1.57187 9.34848 1.6375C9.34814 1.69134 9.32961 1.7401 9.29552 1.77516ZM3.988 5.61891L7.52199 1.96476L8.311 2.79367L4.78354 6.44067L3.988 5.61891ZM3.3441 7.10044L3.59947 6.13125L4.28074 6.83565L3.3441 7.10044Z">
</path>
<path d="M9.60568 3.78167C9.4203 3.78167 9.2683 3.93751 9.2676 4.1318L9.2676 8.85226C9.2676 9.09981 9.07315 9.30085 8.83336 9.30085L1.11022 9.30085C0.870806 9.30085 0.675629 9.09982 0.675629 8.85226L0.675629 1.14754C0.675629 0.899792 0.870806 0.698574 1.11022 0.698574L6.08437 0.698574C6.27082 0.698574 6.42211 0.541997 6.42211 0.349183C6.42211 0.156784 6.27082 3.59704e-16 6.08437 3.59704e-16L1.05872 0C0.475041 0 1.73948e-16 0.490789 1.73948e-16 1.09465L0 8.90553C0 9.5094 0.475041 9.99999 1.05872 9.99999L8.8845 9.99999C9.46856 9.99999 9.94342 9.5094 9.94342 8.90553L9.94342 4.12955C9.94265 3.93751 9.79105 3.78167 9.60568 3.78167Z"   fill="#FFFFFF" fill-opacity="0.7">
</path>
</svg>
