<svg xmlns="http://www.w3.org/2000/svg" xmlns:xlink="http://www.w3.org/1999/xlink" width="22.60009765625" height="20.24285888671875" viewBox="0 0 22.60009765625 20.24285888671875" fill="none">
<path   fill-rule="evenodd"  fill="#FF6C72"  d="M1.30005 8.94286L7.94291 8.94286C8.49519 8.94286 8.94291 8.49514 8.94291 7.94286L8.94291 1.3C8.94291 0.747718 8.49519 0.300003 7.94291 0.300003L1.30005 0.300003C0.747764 0.300003 0.300049 0.747718 0.300049 1.3L0.300049 7.94286C0.300049 8.49514 0.747764 8.94286 1.30005 8.94286ZM2.87148 1.87143L6.37148 1.87143C6.92376 1.87143 7.37148 2.31915 7.37148 2.87143L7.37148 6.37143C7.37148 6.92372 6.92376 7.37143 6.37148 7.37143L2.87148 7.37143C2.31919 7.37143 1.87148 6.92372 1.87148 6.37143L1.87148 2.87143C1.87148 2.31915 2.31919 1.87143 2.87148 1.87143ZM1.30005 19.9429L7.94291 19.9429C8.49519 19.9429 8.94291 19.4951 8.94291 18.9429L8.94291 12.3C8.94291 11.7477 8.49519 11.3 7.94291 11.3L1.30005 11.3C0.747764 11.3 0.300049 11.7477 0.300049 12.3L0.300049 18.9429C0.300049 19.4951 0.747764 19.9429 1.30005 19.9429ZM2.87148 12.8714L6.37148 12.8714C6.92376 12.8714 7.37148 13.3191 7.37148 13.8714L7.37148 17.3714C7.37148 17.9237 6.92376 18.3714 6.37148 18.3714L2.87148 18.3714C2.31919 18.3714 1.87148 17.9237 1.87148 17.3714L1.87148 13.8714C1.87148 13.3191 2.31919 12.8714 2.87148 12.8714ZM11.6646 2.65715L21.5143 2.65715C21.948 2.65715 22.3 2.30508 22.3 1.87143C22.3 1.43778 21.948 1.08572 21.5143 1.08572L11.6646 1.08572C11.231 1.08572 10.8789 1.43778 10.8789 1.87143C10.8789 2.30508 11.231 2.65715 11.6646 2.65715ZM21.5143 12.0857L11.6646 12.0857C11.231 12.0857 10.8789 12.4378 10.8789 12.8714C10.8789 13.3051 11.231 13.6571 11.6646 13.6571L21.5143 13.6571C21.948 13.6571 22.3 13.3051 22.3 12.8714C22.3 12.4378 21.948 12.0857 21.5143 12.0857ZM21.5143 6.58572L11.6646 6.58572C11.231 6.58572 10.8789 6.93778 10.8789 7.37143C10.8789 7.80508 11.231 8.15715 11.6646 8.15715L21.5143 8.15715C21.948 8.15715 22.3 7.80508 22.3 7.37143C22.3 6.93778 21.948 6.58572 21.5143 6.58572ZM21.5143 17.5857L11.6646 17.5857C11.231 17.5857 10.8789 17.9378 10.8789 18.3714C10.8789 18.8051 11.231 19.1571 11.6646 19.1571L21.5143 19.1571C21.948 19.1571 22.3 18.8051 22.3 18.3714C22.3 17.9378 21.948 17.5857 21.5143 17.5857Z">
</path>
<path fill-rule="evenodd"  fill="rgba(255, 108, 114, 1)"  d="M4.88162e-05 7.94286C4.88162e-05 8.66083 0.582079 9.24286 1.30005 9.24286L7.94291 9.24286C8.66088 9.24286 9.24291 8.66083 9.24291 7.94286L9.24291 1.3C9.24291 0.582033 8.66088 3.03984e-06 7.94291 3.03984e-06L1.30005 3.03984e-06C0.582079 3.03984e-06 4.88162e-05 0.582033 4.88162e-05 1.3L4.88162e-05 7.94286ZM7.94291 8.94286L1.30005 8.94286C0.747764 8.94286 0.300049 8.49514 0.300049 7.94286L0.300049 1.3C0.300049 0.747718 0.747764 0.300003 1.30005 0.300003L7.94291 0.300003C8.49519 0.300003 8.94291 0.747718 8.94291 1.3L8.94291 7.94286C8.94291 8.49514 8.49519 8.94286 7.94291 8.94286ZM10.5789 1.87143C10.5789 2.47105 11.065 2.95715 11.6646 2.95715L21.5143 2.95715C22.114 2.95715 22.6 2.47106 22.6 1.87143C22.6 1.27181 22.114 0.785717 21.5143 0.785717L11.6646 0.785717C11.065 0.785717 10.5789 1.27181 10.5789 1.87143ZM21.5143 2.65715L11.6646 2.65715C11.231 2.65715 10.8789 2.30508 10.8789 1.87143C10.8789 1.43778 11.231 1.08572 11.6646 1.08572L21.5143 1.08572C21.948 1.08572 22.3 1.43778 22.3 1.87143C22.3 2.30508 21.948 2.65715 21.5143 2.65715ZM6.37148 1.87143L2.87148 1.87143C2.31919 1.87143 1.87148 2.31915 1.87148 2.87143L1.87148 6.37143C1.87148 6.92372 2.31919 7.37143 2.87148 7.37143L6.37148 7.37143C6.92376 7.37143 7.37148 6.92372 7.37148 6.37143L7.37148 2.87143C7.37148 2.31915 6.92376 1.87143 6.37148 1.87143ZM2.17148 2.87143C2.17148 2.48483 2.48488 2.17143 2.87148 2.17143L6.37148 2.17143C6.75808 2.17143 7.07148 2.48483 7.07148 2.87143L7.07148 6.37143C7.07148 6.75803 6.75808 7.07143 6.37148 7.07143L2.87148 7.07143C2.48488 7.07143 2.17148 6.75803 2.17148 6.37143L2.17148 2.87143ZM22.6 7.37143C22.6 6.77181 22.114 6.28572 21.5143 6.28572L11.6646 6.28572C11.065 6.28572 10.5789 6.77181 10.5789 7.37143C10.5789 7.97106 11.065 8.45715 11.6646 8.45715L21.5143 8.45715C22.114 8.45715 22.6 7.97106 22.6 7.37143ZM11.6646 6.58572L21.5143 6.58572C21.948 6.58572 22.3 6.93778 22.3 7.37143C22.3 7.80508 21.948 8.15715 21.5143 8.15715L11.6646 8.15715C11.231 8.15715 10.8789 7.80508 10.8789 7.37143C10.8789 6.93778 11.231 6.58572 11.6646 6.58572ZM4.88758e-05 12.3L4.88162e-05 18.9429C4.88162e-05 19.6608 0.582079 20.2429 1.30005 20.2429L7.94291 20.2429C8.66088 20.2429 9.24291 19.6608 9.24291 18.9429L9.24291 12.3C9.24291 11.582 8.66088 11 7.94291 11L1.30005 11Q0.761571 11 0.38081 11.3808Q4.89056e-05 11.7615 4.88758e-05 12.3ZM7.94291 19.9429L1.30005 19.9429C0.747764 19.9429 0.300049 19.4951 0.300049 18.9429L0.300049 12.3C0.300049 11.7477 0.747764 11.3 1.30005 11.3L7.94291 11.3C8.49519 11.3 8.94291 11.7477 8.94291 12.3L8.94291 18.9429C8.94291 19.4951 8.49519 19.9429 7.94291 19.9429ZM22.6 12.8714C22.6 12.2718 22.114 11.7857 21.5143 11.7857L11.6646 11.7857C11.065 11.7857 10.5789 12.2718 10.5789 12.8714C10.5789 13.4711 11.065 13.9571 11.6646 13.9571L21.5143 13.9571C22.114 13.9571 22.6 13.4711 22.6 12.8714ZM11.6646 12.0857L21.5143 12.0857C21.948 12.0857 22.3 12.4378 22.3 12.8714C22.3 13.3051 21.948 13.6571 21.5143 13.6571L11.6646 13.6571C11.231 13.6571 10.8789 13.3051 10.8789 12.8714C10.8789 12.4378 11.231 12.0857 11.6646 12.0857ZM6.37148 12.8714L2.87148 12.8714C2.31919 12.8714 1.87148 13.3191 1.87148 13.8714L1.87148 17.3714C1.87148 17.9237 2.31919 18.3714 2.87148 18.3714L6.37148 18.3714C6.92376 18.3714 7.37148 17.9237 7.37148 17.3714L7.37148 13.8714C7.37148 13.3191 6.92376 12.8714 6.37148 12.8714ZM2.17148 13.8714C2.17148 13.4848 2.48488 13.1714 2.87148 13.1714L6.37148 13.1714C6.75808 13.1714 7.07148 13.4848 7.07148 13.8714L7.07148 17.3714C7.07148 17.758 6.75808 18.0714 6.37148 18.0714L2.87148 18.0714C2.48488 18.0714 2.17148 17.758 2.17148 17.3714L2.17148 13.8714ZM22.6 18.3714C22.6 17.7718 22.114 17.2857 21.5143 17.2857L11.6646 17.2857C11.065 17.2857 10.5789 17.7718 10.5789 18.3714C10.5789 18.9711 11.065 19.4571 11.6646 19.4571L21.5143 19.4571C22.114 19.4571 22.6 18.9711 22.6 18.3714ZM11.6646 17.5857L21.5143 17.5857C21.948 17.5857 22.3 17.9378 22.3 18.3714C22.3 18.8051 21.948 19.1571 21.5143 19.1571L11.6646 19.1571C11.231 19.1571 10.8789 18.8051 10.8789 18.3714C10.8789 17.9378 11.231 17.5857 11.6646 17.5857Z">
</path>
</svg>
