<svg xmlns="http://www.w3.org/2000/svg" xmlns:xlink="http://www.w3.org/1999/xlink" width="10.972900390625" height="10.971435546875" viewBox="0 0 10.972900390625 10.971435546875" fill="none">
<path   fill-rule="evenodd"  fill="#666666"  d="M10.2665 0.0431142L10.9284 0.704966C10.9849 0.761535 10.9906 0.82376 10.9284 0.885985L0.887438 10.9269C0.83087 10.9835 0.768645 10.9891 0.706419 10.9269L0.0445676 10.265C-0.012001 10.2085 -0.0176582 10.1463 0.0445671 10.084L10.0911 0.037457C10.1534 -0.0134544 10.2099 -0.0134544 10.2665 0.0431142Z">
</path>
<path   fill-rule="evenodd"  fill="#666666"  d="M1.06846 0.224134L10.753 9.90867C10.8096 9.96524 10.8152 10.0275 10.753 10.0897L10.0911 10.7515C10.0346 10.8081 9.97235 10.8138 9.91012 10.7515L0.225587 1.06701C0.169018 1.01044 0.163362 0.948211 0.225587 0.885985L0.893095 0.218477C0.949664 0.161908 1.00623 0.161908 1.06846 0.224134Z">
</path>
</svg>
