<svg xmlns="http://www.w3.org/2000/svg" xmlns:xlink="http://www.w3.org/1999/xlink" width="16" height="15.9984130859375" viewBox="0 0 16 15.9984130859375" fill="none">
<path   fill-rule="evenodd"  fill="#666666"  d="M13.5953 15.9984L12.0984 15.9984C11.8047 15.9984 11.5656 15.7609 11.5656 15.4656C11.5656 15.1703 11.8031 14.9312 12.1 14.9312L13.5969 14.9312C14.3359 14.9312 14.9375 14.3328 14.9375 13.5969L14.9375 2.40313C14.9375 1.66406 14.3406 1.06406 13.6094 1.06406L2.39687 1.06406C1.66562 1.06406 1.06875 1.66094 1.06875 2.39219L1.06875 13.6031C1.06875 14.3344 1.66875 14.9312 2.40781 14.9312L7.38594 14.9312C7.67969 14.9312 7.91875 15.1687 7.91875 15.4641C7.91875 15.7578 7.68125 15.9969 7.38594 15.9969L2.40625 15.9969C1.08125 15.9969 0 14.9219 0 13.6031L0 2.39375C0 1.07344 1.075 0 2.39375 0L13.6062 0C14.9266 0 16 1.07812 16 2.40625L16 13.6C16.0016 14.9203 14.9219 15.9984 13.5953 15.9984ZM12.2016 4.33281L3.80156 4.33281C3.50781 4.33281 3.26875 4.09531 3.26875 3.8C3.26875 3.50469 3.50625 3.26719 3.80156 3.26719L12.2016 3.26719C12.4953 3.26719 12.7344 3.50469 12.7344 3.8C12.7344 4.09531 12.4953 4.33281 12.2016 4.33281ZM12.2016 8.06563L3.80156 8.06563C3.50781 8.06563 3.26875 7.82812 3.26875 7.53281C3.26875 7.2375 3.50625 7 3.80156 7L12.2016 7C12.4953 7 12.7344 7.2375 12.7344 7.53281C12.7344 7.82656 12.4953 8.06563 12.2016 8.06563ZM7.53438 11.7984L3.80156 11.7984C3.50781 11.7984 3.26875 11.5609 3.26875 11.2656C3.26875 10.9719 3.50625 10.7328 3.80156 10.7328L7.53438 10.7328C7.82812 10.7328 8.06719 10.9703 8.06719 11.2656C8.06719 11.5609 7.82812 11.7984 7.53438 11.7984Z">
</path>
</svg>
