<svg xmlns="http://www.w3.org/2000/svg" xmlns:xlink="http://www.w3.org/1999/xlink" width="38" height="38" viewBox="0 0 38 38" fill="none">
<g filter="url(#filter_L9m3u3dLtkXcwl_p6Xt9-)">
<circle cx="19" cy="17" r="15"   fill="#FF6D70" >
</circle>
</g>
<path   fill="rgba(255, 255, 255, 1)"  d="M18 8.25C13.7198 8.25 10.25 11.7198 10.25 16Q10.25 16.0614 10.244 16.1225Q10.238 16.1836 10.226 16.2439Q10.214 16.3041 10.1962 16.3629Q10.1784 16.4216 10.1548 16.4784Q10.1313 16.5351 10.1024 16.5892Q10.0735 16.6434 10.0393 16.6945Q10.0052 16.7455 9.96626 16.793Q9.92731 16.8405 9.88388 16.8839Q9.84046 16.9273 9.79299 16.9663Q9.74552 17.0052 9.69446 17.0393Q9.6434 17.0735 9.58925 17.1024Q9.53509 17.1313 9.47835 17.1548Q9.42162 17.1783 9.36286 17.1962Q9.30409 17.214 9.24386 17.226Q9.18363 17.238 9.12252 17.244Q9.06141 17.25 9 17.25Q8.93859 17.25 8.87748 17.244Q8.81637 17.238 8.75614 17.226Q8.69591 17.214 8.63714 17.1962Q8.57838 17.1783 8.52164 17.1548Q8.46491 17.1313 8.41075 17.1024Q8.3566 17.0735 8.30554 17.0393Q8.25448 17.0052 8.20701 16.9663Q8.15954 16.9273 8.11612 16.8839Q8.07269 16.8405 8.03374 16.793Q7.99478 16.7455 7.96066 16.6945Q7.92655 16.6434 7.8976 16.5892Q7.86865 16.5351 7.84515 16.4784Q7.82165 16.4216 7.80382 16.3629Q7.786 16.3041 7.77402 16.2439Q7.76204 16.1836 7.75602 16.1225Q7.75 16.0614 7.75 16C7.75 10.3391 12.3391 5.75 18 5.75Q18.0614 5.75 18.1225 5.75602Q18.1836 5.76204 18.2439 5.77402Q18.3041 5.786 18.3629 5.80382Q18.4216 5.82165 18.4784 5.84515Q18.5351 5.86865 18.5892 5.8976Q18.6434 5.92655 18.6945 5.96066Q18.7455 5.99478 18.793 6.03374Q18.8405 6.07269 18.8839 6.11612Q18.9273 6.15954 18.9663 6.20701Q19.0052 6.25448 19.0393 6.30554Q19.0735 6.3566 19.1024 6.41075Q19.1313 6.46491 19.1548 6.52165Q19.1783 6.57838 19.1962 6.63714Q19.214 6.69591 19.226 6.75614Q19.238 6.81637 19.244 6.87748Q19.25 6.93859 19.25 7Q19.25 7.06141 19.244 7.12252Q19.238 7.18363 19.226 7.24386Q19.214 7.30409 19.1962 7.36286Q19.1783 7.42162 19.1548 7.47835Q19.1313 7.53509 19.1024 7.58925Q19.0735 7.6434 19.0393 7.69446Q19.0052 7.74552 18.9663 7.79299Q18.9273 7.84046 18.8839 7.88388Q18.8405 7.92731 18.793 7.96626Q18.7455 8.00522 18.6945 8.03934Q18.6434 8.07345 18.5892 8.1024Q18.5351 8.13135 18.4784 8.15485Q18.4216 8.17835 18.3629 8.19618Q18.3041 8.214 18.2439 8.22598Q18.1836 8.23796 18.1225 8.24398Q18.0614 8.25 18 8.25Z">
</path>
<circle cx="22.25" cy="6.25" r="1.25"   fill="#FFFFFF" >
</circle>
<defs>
<filter id="filter_L9m3u3dLtkXcwl_p6Xt9-" x="0" y="0" width="38" height="38" filterUnits="userSpaceOnUse" color-interpolation-filters="sRGB">
<feFlood flood-opacity="0" result="feFloodId_L9m3u3dLtkXcwl_p6Xt9-"/>
<feColorMatrix in="SourceAlpha" type="matrix" values="0 0 0 0 0 0 0 0 0 0 0 0 0 0 0 0 0 0 127 0" result="hardAlpha_L9m3u3dLtkXcwl_p6Xt9-"/>
<feOffset dx="0" dy="2"/>
<feGaussianBlur stdDeviation="2"/>
<feComposite in2="hardAlpha_L9m3u3dLtkXcwl_p6Xt9-" operator="out"/>
<feColorMatrix type="matrix" values="0 0 0 0 0.45098039215686275 0 0 0 0 0.023529411764705882 0 0 0 0 0.023529411764705882 0 0 0 0.3 0"/>
<feBlend mode="normal" in2="feFloodId_L9m3u3dLtkXcwl_p6Xt9-" result="dropShadow_1_L9m3u3dLtkXcwl_p6Xt9-"/>
<feBlend mode="normal" in="SourceGraphic" in2="dropShadow_1_L9m3u3dLtkXcwl_p6Xt9-" result="shape_L9m3u3dLtkXcwl_p6Xt9-"/>
</filter>
</defs>
</svg>
