<svg xmlns="http://www.w3.org/2000/svg" xmlns:xlink="http://www.w3.org/1999/xlink" width="16.999998092651367" height="28" viewBox="0 0 16.999998092651367 28" fill="none">
<g opacity="0.8">
<path   fill-rule="evenodd"  fill="url(#linear_fill_mG39D1Cr7Z1h-4AnloWyQ_0)"  d="M15.5022 28L1.49784 28C0.671094 28 0 27.352 0 26.5538L0 1.44624C0 0.647974 0.671123 0 1.49784 0L15.5022 0C16.3289 0 17 0.648003 17 1.44624L17 26.5538C17 27.352 16.3289 28 15.5022 28L15.5022 28ZM8.49591 26.5538C9.05247 26.5538 9.4945 26.1192 9.4945 25.5896C9.4945 25.0601 9.04436 24.6254 8.49591 24.6254C7.94747 24.6254 7.49733 25.0601 7.49733 25.5896C7.49733 26.1192 7.94747 26.5538 8.49591 26.5538L8.49591 26.5538ZM15.5022 2.89247L1.49784 2.89247L1.49784 23.1714L15.494 23.1714L15.494 2.89247L15.5022 2.89247Z">
</path>
</g>
<defs>
<linearGradient id="linear_fill_mG39D1Cr7Z1h-4AnloWyQ_0" x1="8.510200500488281" y1="21.598358154296875" x2="8.510200500488281" y2="0" gradientUnits="userSpaceOnUse">
<stop offset="0" stop-color="#FF6C72"  />
<stop offset="1" stop-color="#FF8343"  />
</linearGradient>
</defs>
</svg>
