<svg xmlns="http://www.w3.org/2000/svg" xmlns:xlink="http://www.w3.org/1999/xlink" width="14.1258544921875" height="15.505615234375" viewBox="0 0 14.1258544921875 15.505615234375" fill="none">
<path d="M5.30464 15.2158C5.31727 15.0747 5.32285 14.8407 5.32136 14.5138C5.37422 13.3653 5.49407 11.2541 5.57573 9.86985L5.64567 9.5609L5.64214 9.51445L5.7982 8.80189C4.37633 8.83987 3.18491 8.83698 2.2704 8.7897L2.10784 8.80205L1.97175 9.16275L1.5438 10.293C1.52411 10.3412 1.47943 10.368 1.43298 10.3715L0.575503 10.46L0.505836 10.4653C0.459392 10.4689 0.411181 10.4492 0.430874 10.401L0.59688 8.58988C0.237951 8.47702 0.0415812 8.3518 0.00247478 8.14456L0.000710487 8.12134C-0.015173 7.91233 0.158255 7.73565 0.520994 7.5913L0.106434 5.82433C0.102904 5.77789 0.124362 5.7529 0.170807 5.74937L0.240475 5.74408L1.10148 5.702C1.14793 5.69847 1.19614 5.71817 1.22289 5.76285L1.81673 6.81549L2.00576 7.15147L2.16832 7.13912C3.06695 6.9774 4.24601 6.81773 5.6573 6.64041L5.39359 5.93639L5.3883 5.86672L5.29568 5.57012C5.029 4.21234 4.61472 2.14171 4.38891 1.01438C4.31776 0.692793 4.27689 0.462331 4.2663 0.322994C4.19162 -0.0450393 4.65431 -0.103558 4.83804 0.162761C4.8648 0.207442 5.36956 1.00993 6.02954 2.01083L6.63333 1.96495C6.86556 1.9473 7.06546 2.11896 7.08311 2.35119C7.10076 2.58342 6.92909 2.78332 6.69687 2.80096L6.55753 2.81155C6.9303 3.41386 7.32805 4.03762 7.69729 4.59348L8.39397 4.54054C8.6262 4.52289 8.8261 4.69455 8.84374 4.92678C8.86139 5.15901 8.68973 5.35891 8.4575 5.37656L8.22528 5.3942C8.43929 5.75165 8.64802 6.03943 8.78001 6.23961C11.4953 6.0099 13.6012 6.06008 14.031 6.79819C14.0578 6.84287 14.0596 6.86609 14.0863 6.91077C14.0881 6.934 14.0916 6.98044 14.1166 7.0019L14.1236 7.09479C14.1254 7.11801 14.1289 7.16446 14.1075 7.18945C14.111 7.23589 14.0896 7.26088 14.0699 7.30909C13.7565 8.10367 11.6824 8.47151 8.96002 8.60832C8.85979 8.82615 8.72017 9.1404 8.56087 9.50286L8.79309 9.48521C9.02532 9.46756 9.22522 9.63923 9.24287 9.87145C9.26052 10.1037 9.08885 10.3036 8.85662 10.3212L8.15994 10.3742C7.87895 10.9794 7.58002 11.6562 7.27933 12.3096L7.46511 12.2955C7.69734 12.2779 7.89724 12.4495 7.91488 12.6818C7.93253 12.914 7.76087 13.1139 7.52864 13.1315L6.83196 13.1845C6.33257 14.2968 5.93165 15.1682 5.91019 15.1931C5.77764 15.6003 5.28819 15.6141 5.30464 15.2158Z"   fill="#666666" >
</path>
</svg>
