<svg xmlns="http://www.w3.org/2000/svg" xmlns:xlink="http://www.w3.org/1999/xlink" width="16.5" height="17.09130859375" viewBox="0 0 16.5 17.09130859375" fill="none">
<path d="M16.1353 16.7236C16.2882 16.5706 16.2882 16.3235 16.1353 16.1587L13.7016 13.2544C14.3489 12.6071 14.855 11.8539 15.2316 11.0301C15.6788 10.0416 15.9024 9.00592 15.9024 7.9232C15.9024 6.88755 15.7023 5.87544 15.2904 4.93394C14.8903 4.01599 14.3254 3.20394 13.6075 2.49782C12.8896 1.7917 12.054 1.23857 11.1243 0.850204C10.1592 0.450068 9.13537 0.25 8.07619 0.25C7.017 0.25 5.99313 0.450068 5.02809 0.850204C4.09837 1.23857 3.26279 1.7917 2.5449 2.49782C1.82701 3.20394 1.26211 4.01599 0.861973 4.93394C0.461837 5.87544 0.25 6.88755 0.25 7.9232C0.25 8.95884 0.461837 9.95918 0.861973 10.9007C1.26211 11.8186 1.82701 12.6307 2.5449 13.3368C3.26279 14.0429 4.09837 14.5961 5.02809 14.9844C5.99313 15.3846 7.017 15.5846 8.07619 15.5846C8.7117 15.5846 9.34721 15.514 9.94741 15.361L9.95918 15.361C9.96023 15.361 9.97236 15.3581 9.99425 15.3528C10.2193 15.2978 11.4753 14.9917 12.3012 15.0668C12.5248 15.0903 12.7248 14.9256 12.7484 14.7137C12.7601 14.4901 12.5954 14.3018 12.3718 14.2783C11.3479 14.1841 9.86503 14.5607 9.75911 14.5961C9.20598 14.7255 8.64109 14.7961 8.07619 14.7961C6.20496 14.7961 4.43966 14.0782 3.12156 12.7837C1.7917 11.4773 1.06204 9.75911 1.06204 7.9232C1.06204 6.08728 1.7917 4.35728 3.12156 3.06272C4.43966 1.75639 6.20496 1.05027 8.07619 1.05027C9.94741 1.05027 11.7127 1.75639 13.0426 3.06272C14.3607 4.35728 15.0903 6.08728 15.0903 7.9232C15.0903 8.88823 14.8903 9.82973 14.4901 10.7006C14.1018 11.5597 13.5604 12.3129 12.8661 12.9484C12.7013 13.0897 12.6895 13.3368 12.8307 13.5016L12.9837 13.6663C12.9837 13.6781 12.9955 13.6781 13.0073 13.6899L15.5586 16.7236C15.641 16.806 15.7469 16.8413 15.8528 16.8413C15.947 16.8413 16.0529 16.806 16.1353 16.7236ZM2.88089 7.56684C2.97504 6.7548 3.22219 5.98983 3.62232 5.28371C3.74001 5.09541 3.6694 4.84827 3.46933 4.74235C3.28103 4.63643 3.03389 4.70704 2.9162 4.89534C2.45722 5.69561 2.17477 6.5665 2.06885 7.48446C2.04532 7.69629 2.21008 7.89636 2.43368 7.9199L2.48076 7.9199C2.68083 7.9199 2.85736 7.76691 2.88089 7.56684Z" stroke="url(#linear_border_J4s9GLfELLJ--b0J_IrEu)" stroke-width="0.5"    fill-rule="evenodd"  fill="url(#linear_fill_J4s9GLfELLJ--b0J_IrEu)" >
</path>
<defs>
<linearGradient id="linear_fill_J4s9GLfELLJ--b0J_IrEu" x1="8.259613037109375" y1="14.70965576171875" x2="8.259613037109375" y2="0.25" gradientUnits="userSpaceOnUse">
<stop offset="0" stop-color="#FF6C72"  />
<stop offset="1" stop-color="#FF8343"  />
</linearGradient>
<linearGradient id="linear_border_J4s9GLfELLJ--b0J_IrEu" x1="0.25" y1="8.545654296875" x2="16.25" y2="8.545654296875" gradientUnits="userSpaceOnUse">
<stop offset="0" stop-color="#FF775C"  />
<stop offset="1" stop-color="#FF7364"  />
</linearGradient>
</defs>
</svg>
