<svg xmlns="http://www.w3.org/2000/svg" xmlns:xlink="http://www.w3.org/1999/xlink" width="16" height="16.591323852539062" viewBox="0 0 16 16.591323852539062" fill="none">
<path d="M15.8853 16.4736C16.0382 16.3206 16.0382 16.0735 15.8853 15.9087L13.4516 13.0044C14.0989 12.3571 14.605 11.6039 14.9816 10.7801C15.4288 9.79156 15.6524 8.75592 15.6524 7.6732C15.6524 6.63755 15.4523 5.62544 15.0404 4.68394C14.6403 3.76599 14.0754 2.95394 13.3575 2.24782C12.6396 1.5417 11.804 0.988571 10.8743 0.600204C9.90925 0.200068 8.88537 0 7.82619 0C6.767 0 5.74313 0.200068 4.77809 0.600204C3.84837 0.988571 3.01279 1.5417 2.2949 2.24782C1.57701 2.95394 1.01211 3.76599 0.611973 4.68394C0.211837 5.62544 0 6.63755 0 7.6732C0 8.70884 0.211837 9.70918 0.611973 10.6507C1.01211 11.5686 1.57701 12.3807 2.2949 13.0868C3.01279 13.7929 3.84837 14.3461 4.77809 14.7344C5.74313 15.1346 6.767 15.3346 7.82619 15.3346C8.4617 15.3346 9.09721 15.264 9.69741 15.111L9.70918 15.111C9.71023 15.111 9.72236 15.1081 9.74425 15.1028C9.96933 15.0478 11.2253 14.7417 12.0512 14.8168C12.2748 14.8403 12.4748 14.6756 12.4984 14.4637C12.5101 14.2401 12.3454 14.0518 12.1218 14.0283C11.0979 13.9341 9.61503 14.3107 9.50911 14.3461C8.95598 14.4755 8.39109 14.5461 7.82619 14.5461C5.95496 14.5461 4.18966 13.8282 2.87156 12.5337C1.5417 11.2273 0.812041 9.50911 0.812041 7.6732C0.812041 5.83728 1.5417 4.10728 2.87156 2.81272C4.18966 1.50639 5.95496 0.800272 7.82619 0.800272C9.69741 0.800272 11.4627 1.50639 12.7926 2.81272C14.1107 4.10728 14.8403 5.83728 14.8403 7.6732C14.8403 8.63823 14.6403 9.57973 14.2401 10.4506C13.8518 11.3097 13.3104 12.0629 12.6161 12.6984C12.4513 12.8397 12.4395 13.0868 12.5807 13.2516L12.7337 13.4163C12.7337 13.4281 12.7455 13.4281 12.7573 13.4399L15.3086 16.4736C15.391 16.556 15.4969 16.5913 15.6028 16.5913C15.697 16.5913 15.8029 16.556 15.8853 16.4736ZM2.63089 7.31684C2.72504 6.5048 2.97219 5.73983 3.37232 5.03371C3.49001 4.84541 3.4194 4.59827 3.21933 4.49235C3.03103 4.38643 2.78389 4.45704 2.6662 4.64534C2.20722 5.44561 1.92477 6.3165 1.81885 7.23446C1.79532 7.44629 1.96008 7.64636 2.18368 7.6699L2.23076 7.6699C2.43083 7.6699 2.60736 7.51691 2.63089 7.31684Z" fill-rule="evenodd"  fill="#FFFFFF" fill-opacity="0.8">
</path>
</svg>
