<svg xmlns="http://www.w3.org/2000/svg" xmlns:xlink="http://www.w3.org/1999/xlink" width="22" height="20.6158447265625" viewBox="0 0 22 20.6158447265625" fill="none">
<path d="M11.0001 5.87317C8.52714 5.87317 6.51526 7.86246 6.51526 10.3076C6.51526 12.7529 8.52714 14.7423 11.0001 14.7423C11.2407 14.7423 11.4951 14.7176 11.8023 14.6644C12.2615 14.5816 12.5666 14.1462 12.4826 13.6937C12.4089 13.2968 12.0615 13.0086 11.6564 13.0086C11.6041 13.0086 11.5514 13.0136 11.5019 13.0229C11.3016 13.0583 11.1428 13.0748 11.0021 13.0748C9.45898 13.0748 8.2036 11.8334 8.2036 10.3076C8.2036 8.78196 9.45707 7.54073 10.9979 7.54073C12.5399 7.54073 13.7943 8.78196 13.7943 10.3076C13.7943 10.4563 13.7777 10.6125 13.7416 10.8004C13.6577 11.2528 13.9629 11.6883 14.4218 11.7709C14.4725 11.78 14.5239 11.7847 14.575 11.7847C14.9838 11.7847 15.3324 11.4963 15.4034 11.1005C15.4574 10.8116 15.4826 10.5597 15.4826 10.3078C15.4837 9.12512 15.0174 8.01201 14.1697 7.1735C13.3221 6.33497 12.1963 5.87317 11.0001 5.87317Z"   fill="#FFFFFF" >
</path>
<path   fill-rule="evenodd"  fill="#FFFFFF"  d="M21.8015 8.26996C21.7464 7.98166 21.523 7.75272 21.2322 7.6866C20.1748 7.44669 19.2949 6.80528 18.7549 5.88129C18.2166 4.95882 18.094 3.88552 18.4095 2.86088C18.4985 2.58023 18.4096 2.27463 18.1836 2.08275C17.1274 1.18145 15.9245 0.494735 14.6085 0.0419174C14.5289 0.0144458 14.446 0.000555062 14.3618 0.000555062C14.1535 0.000555062 13.9535 0.0871269 13.8136 0.237136C13.076 1.02041 12.0767 1.45178 11.0001 1.45178C9.92338 1.45178 8.92343 1.01969 8.1841 0.234864C7.98534 0.0245927 7.6666 -0.0556017 7.38729 0.0399035C6.06307 0.498401 4.86085 1.18581 3.81352 2.08334C3.59109 2.27489 3.50261 2.5784 3.5881 2.85724C3.90567 3.88278 3.78388 4.95598 3.24501 5.87946C2.70743 6.80283 1.82828 7.44395 0.767967 7.68505C0.476777 7.75342 0.253338 7.98308 0.198756 8.26957C0.0668459 8.9551 0 9.6408 0 10.3075C0 10.9743 0.0668459 11.66 0.198653 12.3453C0.253519 12.6332 0.476777 12.8622 0.767683 12.9286C1.82521 13.1686 2.70508 13.8098 3.24519 14.7338C3.78386 15.6571 3.90567 16.7303 3.58791 17.7564C3.50305 18.0332 3.59099 18.3371 3.81432 18.5325C4.87023 19.4334 6.07237 20.12 7.38863 20.5738C7.67794 20.6718 7.98759 20.5876 8.18226 20.38C8.92149 19.5955 9.92134 19.1634 10.9979 19.1634C12.0745 19.1634 13.0745 19.5955 13.8127 20.3791C13.9529 20.5294 14.1532 20.6158 14.3623 20.6158C14.445 20.6158 14.5273 20.6027 14.6103 20.5755C15.9255 20.1221 17.1277 19.4354 18.1844 18.5339C18.4062 18.3428 18.4949 18.0387 18.41 17.7579C18.0921 16.7315 18.2145 15.6585 18.7549 14.7358C19.293 13.8117 20.1728 13.1707 21.2325 12.9306C21.5198 12.8652 21.743 12.6371 21.8014 12.3476C21.9332 11.6617 22 10.9761 22 10.3097C22 9.64183 21.9332 8.95541 21.8015 8.26996ZM16.5054 17.2795C15.8487 17.7881 15.1243 18.2018 14.3485 18.5112C13.4229 17.7002 12.2391 17.2552 10.9979 17.2552C9.76348 17.2552 8.57983 17.7002 7.64806 18.5114C6.87235 18.202 6.14789 17.7884 5.49102 17.2798C5.74067 16.0828 5.53868 14.8463 4.91667 13.7821C4.2998 12.7232 3.31632 11.9317 2.13654 11.5406C2.07646 11.1282 2.04609 10.714 2.04609 10.3075C2.04609 9.90274 2.07646 9.48875 2.13654 9.07495C3.31263 8.68665 4.29593 7.89517 4.91667 6.83314C5.53543 5.77283 5.73734 4.53627 5.49066 3.3356C6.14727 2.82719 6.87171 2.41357 7.64778 2.10392C8.57683 2.9164 9.76059 3.36198 10.9979 3.36198C12.2392 3.36198 13.4229 2.91702 14.3484 2.10598C15.1243 2.41555 15.8486 2.82918 16.5052 3.33758C16.2577 4.53944 16.4589 5.7758 17.0771 6.83513C17.6939 7.894 18.6772 8.68567 19.8572 9.07694C19.9172 9.49038 19.9476 9.90454 19.9476 10.3118C19.9512 10.7014 19.9216 11.114 19.8593 11.5406C18.6794 11.9317 17.696 12.7232 17.0792 13.782C16.4618 14.8399 16.26 16.0763 16.5054 17.2795Z">
</path>
</svg>
