<svg xmlns="http://www.w3.org/2000/svg" xmlns:xlink="http://www.w3.org/1999/xlink" width="16.0006103515625" height="18.290008544921875" viewBox="0 0 16.0006103515625 18.290008544921875" fill="none">
<path d="M10.8722 9.13233L15.691 2.5456C16.2124 1.8327 16.0583 0.832187 15.3465 0.309257C15.0727 0.108338 14.7419 1.34169e-06 14.4023 0L1.59771 0C0.715428 0 0 0.716342 0 1.6C0 1.94011 0.108114 2.27131 0.3088 2.5456L5.12777 9.13233L5.12777 17.6C5.12777 17.9787 5.43428 18.2857 5.81256 18.2857C6.19093 18.2853 6.49739 17.9783 6.49714 17.6L6.49714 8.90788C6.49714 8.76228 6.45074 8.62033 6.36479 8.50262L1.41348 1.73508C1.36279 1.6656 1.35534 1.57356 1.39421 1.49683C1.43308 1.4201 1.5117 1.37165 1.59771 1.37143L14.4023 1.37143C14.4883 1.37157 14.567 1.42003 14.6058 1.4968C14.6447 1.57358 14.6371 1.66567 14.5863 1.73508L9.63496 8.50262C9.54895 8.62023 9.5026 8.76217 9.50262 8.90788L9.50262 15.6667C9.50262 16.0455 9.80913 16.3524 10.1874 16.3524C10.3692 16.3523 10.5434 16.28 10.6718 16.1514C10.8003 16.0228 10.8723 15.8485 10.8722 15.6667L10.8722 9.13233Z"   fill="#666666" >
</path>
</svg>
