<svg xmlns="http://www.w3.org/2000/svg" xmlns:xlink="http://www.w3.org/1999/xlink" width="14.405487060546875" height="12.4969482421875" viewBox="0 0 14.405487060546875 12.4969482421875" fill="none">
<path d="M7.41636 2.27361C7.76836 1.83628 8.14169 1.44161 8.53636 1.08961C8.87769 0.80161 9.26436 0.540276 9.69636 0.30561C10.1284 0.0709429 10.579 -0.0303904 11.0484 0.00160961C11.7097 0.0549429 12.2617 0.212276 12.7044 0.47361C13.147 0.734943 13.499 1.06561 13.7604 1.46561C14.0217 1.86561 14.2004 2.31894 14.2964 2.82561C14.3924 3.33228 14.4244 3.85228 14.3924 4.38561C14.3604 4.91894 14.267 5.42828 14.1124 5.91361C13.9577 6.39894 13.7657 6.85228 13.5364 7.27361C13.307 7.69494 13.0537 8.08428 12.7764 8.44161C12.499 8.79894 12.2217 9.12161 11.9444 9.40961C11.5177 9.84694 11.0724 10.2549 10.6084 10.6336C10.1444 11.0123 9.70169 11.3376 9.28036 11.6096C8.85902 11.8816 8.47502 12.0976 8.12836 12.2576C7.78169 12.4176 7.51236 12.4976 7.32036 12.4976C7.10702 12.5083 6.83502 12.4336 6.50436 12.2736C6.17369 12.1136 5.81102 11.8976 5.41636 11.6256C5.02169 11.3536 4.60569 11.0309 4.16836 10.6576C3.73102 10.2843 3.29902 9.88961 2.87236 9.47361C2.59502 9.20694 2.29636 8.89761 1.97636 8.54561C1.65636 8.19361 1.35502 7.80694 1.07236 7.38561C0.789689 6.96428 0.547023 6.50828 0.344356 6.01761C0.141689 5.52694 0.0296894 5.00428 0.00835602 4.44961C-0.0129773 3.89494 0.0456894 3.37494 0.184356 2.88961C0.323023 2.40428 0.531023 1.96961 0.808356 1.58561C1.08569 1.20161 1.42702 0.878943 1.83236 0.61761C2.23769 0.356276 2.69636 0.172276 3.20836 0.0656096C3.46436 0.0122763 3.72036 0.00427628 3.97636 0.0416096C4.23236 0.0789429 4.48302 0.142943 4.72836 0.23361C4.97369 0.324276 5.20836 0.438943 5.43236 0.57761C5.65636 0.716276 5.86969 0.860276 6.07236 1.00961C6.54169 1.36161 6.98969 1.78294 7.41636 2.27361Z"   fill="#FFFFFF" >
</path>
</svg>
