<svg xmlns="http://www.w3.org/2000/svg" xmlns:xlink="http://www.w3.org/1999/xlink" width="37.47998046875" height="18.820068359375" viewBox="0 0 37.47998046875 18.820068359375" fill="none">
<g >
<path     fill="#333333"  d="M17.62 8.84001L17.62 10.44L0.619971 10.44L0.619971 8.84001L8.13997 8.84001L8.13997 7.34001L1.65997 7.34001L1.65997 5.78001L8.13997 5.78001L8.13997 4.26001L0.979971 4.26001L0.979971 2.68001L5.33997 2.68001Q4.17997 1.38002 3.83997 1.04001L5.17997 0.0200157L7.27997 2.20001L6.61997 2.68001L10.66 2.68001Q12.04 1.06001 12.8 1.52588e-05L14.4 0.880014Q13.84 1.64001 12.94 2.68001L17.26 2.68001L17.26 4.26001L10.1 4.26001L10.1 5.78001L16.58 5.78001L16.58 7.34001L10.1 7.34001L10.1 8.84001L17.62 8.84001ZM10.62 13.84Q12.54 16.06 18.22 16.88L17.46 18.7Q11.32 17.64 9.11997 14.68Q8.23997 16.04 6.23997 17.07Q4.23997 18.1 0.779971 18.76L-2.93255e-05 16.98Q3.17997 16.48 4.90997 15.68Q6.63997 14.88 7.35997 13.84L0.339971 13.84L0.339971 12.26L7.97997 12.26L8.01997 11.82Q8.09997 11.1 8.09997 10.88L10.1 10.88Q10.1 11.1 10.02 11.82L9.97997 12.26L17.9 12.26L17.9 13.84L10.62 13.84ZM20.98 18.8L20.98 1.14001L37.48 1.14001L37.48 18.82L35.6 18.82L35.6 17.74L22.84 17.74L22.84 18.8L20.98 18.8ZM22.84 2.84001L22.84 16L35.6 16L35.6 2.84001L22.84 2.84001ZM30 9.72001L30 12.88L34.68 12.88L34.68 14.54L23.72 14.54L23.72 12.88L28.2 12.88L28.2 9.72001L24.8 9.72001L24.8 8.14001L28.2 8.14001L28.2 5.98001L24.2 5.98001L24.2 4.40001L34.22 4.40001L34.22 5.98001L30 5.98001L30 8.14001L33.68 8.14001L33.68 9.72001L30 9.72001ZM32.18 9.90001Q33.1 10.96 33.8 11.98L32.68 12.84Q31.84 11.68 31.08 10.76L32.18 9.90001Z">
</path>
</g>
</svg>
