<svg xmlns="http://www.w3.org/2000/svg" xmlns:xlink="http://www.w3.org/1999/xlink" width="31" height="23" viewBox="0 0 31 23" fill="none">
<path   fill-rule="evenodd"  fill="#FFFFFF"  d="M22.7951 15.2811C20.8502 13.577 18.3101 12.5455 15.5277 12.5455C12.7453 12.5455 10.2051 13.577 8.25677 15.2845C8.14603 15.3821 8.13219 15.5564 8.22909 15.6748L9.47494 17.1698C9.5753 17.2883 9.75179 17.3023 9.86946 17.2012C11.3783 15.863 13.3578 15.0545 15.5277 15.0545C17.6975 15.0545 19.6771 15.863 21.1859 17.1977C21.3036 17.2988 21.4801 17.2848 21.5804 17.1664L22.8263 15.6714C22.9232 15.5564 22.9093 15.3821 22.7951 15.2811ZM26.858 10.3988C23.7884 7.82348 19.8397 6.27273 15.5277 6.27273C11.2157 6.27273 7.26702 7.82348 4.19392 10.3988C4.07626 10.4964 4.06242 10.6741 4.15932 10.7926L5.40516 12.2876C5.50206 12.4061 5.67856 12.42 5.79276 12.3224C8.43327 10.113 11.8282 8.78182 15.5277 8.78182C19.2272 8.78182 22.6221 10.113 25.2591 12.3224C25.3768 12.42 25.5498 12.4061 25.6467 12.2876L26.8926 10.7926C26.9895 10.6741 26.9757 10.4964 26.858 10.3988ZM30.8966 5.55485C26.6953 2.08394 21.3174 0 15.4585 0C9.63759 0 4.29428 2.05606 0.103385 5.48515C-0.0177394 5.58273 -0.0350429 5.76045 0.0653172 5.88242L1.31117 7.37742C1.40807 7.49242 1.5811 7.50985 1.6953 7.41576C5.45707 4.34561 10.2432 2.50909 15.4585 2.50909C20.7118 2.50909 25.5291 4.37348 29.3012 7.48197C29.4189 7.57955 29.5919 7.56212 29.6888 7.44364L30.9347 5.94864C31.035 5.83015 31.0177 5.65242 30.8966 5.55485ZM13.2782 20.7697C13.2782 22.0006 14.2707 23 15.4931 23C16.7155 23 17.7079 22.0006 17.7079 20.7697C17.7079 19.5388 16.7155 18.5394 15.4931 18.5394C14.2707 18.5394 13.2782 19.5388 13.2782 20.7697Z">
</path>
</svg>
